<?xml version="1.0" encoding="utf-8" standalone="no"?>
<!DOCTYPE svg PUBLIC "-//W3C//DTD SVG 1.1//EN"
  "http://www.w3.org/Graphics/SVG/1.1/DTD/svg11.dtd">
<svg xmlns:xlink="http://www.w3.org/1999/xlink" width="720pt" height="864pt" viewBox="0 0 720 864" xmlns="http://www.w3.org/2000/svg" version="1.1">
 <metadata>
  <rdf:RDF xmlns:dc="http://purl.org/dc/elements/1.1/" xmlns:cc="http://creativecommons.org/ns#" xmlns:rdf="http://www.w3.org/1999/02/22-rdf-syntax-ns#">
   <cc:Work>
    <dc:type rdf:resource="http://purl.org/dc/dcmitype/StillImage"/>
    <dc:date>2024-09-11T14:58:38.084695</dc:date>
    <dc:format>image/svg+xml</dc:format>
    <dc:creator>
     <cc:Agent>
      <dc:title>Matplotlib v3.9.2, https://matplotlib.org/</dc:title>
     </cc:Agent>
    </dc:creator>
   </cc:Work>
  </rdf:RDF>
 </metadata>
 <defs>
  <style type="text/css">*{stroke-linejoin: round; stroke-linecap: butt}</style>
 </defs>
 <g id="figure_1">
  <g id="patch_1">
   <path d="M 0 864 
L 720 864 
L 720 0 
L 0 0 
z
" style="fill: #ffffff"/>
  </g>
  <g id="axes_1">
   <g id="patch_2">
    <path d="M 77.654 251.702357 
L 691.376 251.702357 
L 691.376 14.899888 
L 77.654 14.899888 
z
" style="fill: #ffffff"/>
   </g>
   <g id="matplotlib.axis_1">
    <g id="xtick_1">
     <g id="line2d_1">
      <defs>
       <path id="me8a2b40d2a" d="M 0 0 
L 0 3.5 
" style="stroke: #000000; stroke-width: 0.8"/>
      </defs>
      <g>
       <use xlink:href="#me8a2b40d2a" x="104.407157" y="251.702357" style="stroke: #000000; stroke-width: 0.8"/>
      </g>
     </g>
     <g id="text_1">
      <!-- 0 -->
      <g transform="translate(100.589657 267.820482) scale(0.12 -0.12)">
       <defs>
        <path id="DejaVuSans-30" d="M 2034 4250 
Q 1547 4250 1301 3770 
Q 1056 3291 1056 2328 
Q 1056 1369 1301 889 
Q 1547 409 2034 409 
Q 2525 409 2770 889 
Q 3016 1369 3016 2328 
Q 3016 3291 2770 3770 
Q 2525 4250 2034 4250 
z
M 2034 4750 
Q 2819 4750 3233 4129 
Q 3647 3509 3647 2328 
Q 3647 1150 3233 529 
Q 2819 -91 2034 -91 
Q 1250 -91 836 529 
Q 422 1150 422 2328 
Q 422 3509 836 4129 
Q 1250 4750 2034 4750 
z
" transform="scale(0.015625)"/>
       </defs>
       <use xlink:href="#DejaVuSans-30"/>
      </g>
     </g>
    </g>
    <g id="xtick_2">
     <g id="line2d_2">
      <g>
       <use xlink:href="#me8a2b40d2a" x="180.626978" y="251.702357" style="stroke: #000000; stroke-width: 0.8"/>
      </g>
     </g>
     <g id="text_2">
      <!-- 200 -->
      <g transform="translate(169.174478 267.820482) scale(0.12 -0.12)">
       <defs>
        <path id="DejaVuSans-32" d="M 1228 531 
L 3431 531 
L 3431 0 
L 469 0 
L 469 531 
Q 828 903 1448 1529 
Q 2069 2156 2228 2338 
Q 2531 2678 2651 2914 
Q 2772 3150 2772 3378 
Q 2772 3750 2511 3984 
Q 2250 4219 1831 4219 
Q 1534 4219 1204 4116 
Q 875 4013 500 3803 
L 500 4441 
Q 881 4594 1212 4672 
Q 1544 4750 1819 4750 
Q 2544 4750 2975 4387 
Q 3406 4025 3406 3419 
Q 3406 3131 3298 2873 
Q 3191 2616 2906 2266 
Q 2828 2175 2409 1742 
Q 1991 1309 1228 531 
z
" transform="scale(0.015625)"/>
       </defs>
       <use xlink:href="#DejaVuSans-32"/>
       <use xlink:href="#DejaVuSans-30" x="63.623047"/>
       <use xlink:href="#DejaVuSans-30" x="127.246094"/>
      </g>
     </g>
    </g>
    <g id="xtick_3">
     <g id="line2d_3">
      <g>
       <use xlink:href="#me8a2b40d2a" x="256.8468" y="251.702357" style="stroke: #000000; stroke-width: 0.8"/>
      </g>
     </g>
     <g id="text_3">
      <!-- 400 -->
      <g transform="translate(245.3943 267.820482) scale(0.12 -0.12)">
       <defs>
        <path id="DejaVuSans-34" d="M 2419 4116 
L 825 1625 
L 2419 1625 
L 2419 4116 
z
M 2253 4666 
L 3047 4666 
L 3047 1625 
L 3713 1625 
L 3713 1100 
L 3047 1100 
L 3047 0 
L 2419 0 
L 2419 1100 
L 313 1100 
L 313 1709 
L 2253 4666 
z
" transform="scale(0.015625)"/>
       </defs>
       <use xlink:href="#DejaVuSans-34"/>
       <use xlink:href="#DejaVuSans-30" x="63.623047"/>
       <use xlink:href="#DejaVuSans-30" x="127.246094"/>
      </g>
     </g>
    </g>
    <g id="xtick_4">
     <g id="line2d_4">
      <g>
       <use xlink:href="#me8a2b40d2a" x="333.066621" y="251.702357" style="stroke: #000000; stroke-width: 0.8"/>
      </g>
     </g>
     <g id="text_4">
      <!-- 600 -->
      <g transform="translate(321.614121 267.820482) scale(0.12 -0.12)">
       <defs>
        <path id="DejaVuSans-36" d="M 2113 2584 
Q 1688 2584 1439 2293 
Q 1191 2003 1191 1497 
Q 1191 994 1439 701 
Q 1688 409 2113 409 
Q 2538 409 2786 701 
Q 3034 994 3034 1497 
Q 3034 2003 2786 2293 
Q 2538 2584 2113 2584 
z
M 3366 4563 
L 3366 3988 
Q 3128 4100 2886 4159 
Q 2644 4219 2406 4219 
Q 1781 4219 1451 3797 
Q 1122 3375 1075 2522 
Q 1259 2794 1537 2939 
Q 1816 3084 2150 3084 
Q 2853 3084 3261 2657 
Q 3669 2231 3669 1497 
Q 3669 778 3244 343 
Q 2819 -91 2113 -91 
Q 1303 -91 875 529 
Q 447 1150 447 2328 
Q 447 3434 972 4092 
Q 1497 4750 2381 4750 
Q 2619 4750 2861 4703 
Q 3103 4656 3366 4563 
z
" transform="scale(0.015625)"/>
       </defs>
       <use xlink:href="#DejaVuSans-36"/>
       <use xlink:href="#DejaVuSans-30" x="63.623047"/>
       <use xlink:href="#DejaVuSans-30" x="127.246094"/>
      </g>
     </g>
    </g>
    <g id="xtick_5">
     <g id="line2d_5">
      <g>
       <use xlink:href="#me8a2b40d2a" x="409.286442" y="251.702357" style="stroke: #000000; stroke-width: 0.8"/>
      </g>
     </g>
     <g id="text_5">
      <!-- 800 -->
      <g transform="translate(397.833942 267.820482) scale(0.12 -0.12)">
       <defs>
        <path id="DejaVuSans-38" d="M 2034 2216 
Q 1584 2216 1326 1975 
Q 1069 1734 1069 1313 
Q 1069 891 1326 650 
Q 1584 409 2034 409 
Q 2484 409 2743 651 
Q 3003 894 3003 1313 
Q 3003 1734 2745 1975 
Q 2488 2216 2034 2216 
z
M 1403 2484 
Q 997 2584 770 2862 
Q 544 3141 544 3541 
Q 544 4100 942 4425 
Q 1341 4750 2034 4750 
Q 2731 4750 3128 4425 
Q 3525 4100 3525 3541 
Q 3525 3141 3298 2862 
Q 3072 2584 2669 2484 
Q 3125 2378 3379 2068 
Q 3634 1759 3634 1313 
Q 3634 634 3220 271 
Q 2806 -91 2034 -91 
Q 1263 -91 848 271 
Q 434 634 434 1313 
Q 434 1759 690 2068 
Q 947 2378 1403 2484 
z
M 1172 3481 
Q 1172 3119 1398 2916 
Q 1625 2713 2034 2713 
Q 2441 2713 2670 2916 
Q 2900 3119 2900 3481 
Q 2900 3844 2670 4047 
Q 2441 4250 2034 4250 
Q 1625 4250 1398 4047 
Q 1172 3844 1172 3481 
z
" transform="scale(0.015625)"/>
       </defs>
       <use xlink:href="#DejaVuSans-38"/>
       <use xlink:href="#DejaVuSans-30" x="63.623047"/>
       <use xlink:href="#DejaVuSans-30" x="127.246094"/>
      </g>
     </g>
    </g>
    <g id="xtick_6">
     <g id="line2d_6">
      <g>
       <use xlink:href="#me8a2b40d2a" x="485.506263" y="251.702357" style="stroke: #000000; stroke-width: 0.8"/>
      </g>
     </g>
     <g id="text_6">
      <!-- 1000 -->
      <g transform="translate(470.236263 267.820482) scale(0.12 -0.12)">
       <defs>
        <path id="DejaVuSans-31" d="M 794 531 
L 1825 531 
L 1825 4091 
L 703 3866 
L 703 4441 
L 1819 4666 
L 2450 4666 
L 2450 531 
L 3481 531 
L 3481 0 
L 794 0 
L 794 531 
z
" transform="scale(0.015625)"/>
       </defs>
       <use xlink:href="#DejaVuSans-31"/>
       <use xlink:href="#DejaVuSans-30" x="63.623047"/>
       <use xlink:href="#DejaVuSans-30" x="127.246094"/>
       <use xlink:href="#DejaVuSans-30" x="190.869141"/>
      </g>
     </g>
    </g>
    <g id="xtick_7">
     <g id="line2d_7">
      <g>
       <use xlink:href="#me8a2b40d2a" x="561.726084" y="251.702357" style="stroke: #000000; stroke-width: 0.8"/>
      </g>
     </g>
     <g id="text_7">
      <!-- 1200 -->
      <g transform="translate(546.456084 267.820482) scale(0.12 -0.12)">
       <use xlink:href="#DejaVuSans-31"/>
       <use xlink:href="#DejaVuSans-32" x="63.623047"/>
       <use xlink:href="#DejaVuSans-30" x="127.246094"/>
       <use xlink:href="#DejaVuSans-30" x="190.869141"/>
      </g>
     </g>
    </g>
    <g id="xtick_8">
     <g id="line2d_8">
      <g>
       <use xlink:href="#me8a2b40d2a" x="637.945905" y="251.702357" style="stroke: #000000; stroke-width: 0.8"/>
      </g>
     </g>
     <g id="text_8">
      <!-- 1400 -->
      <g transform="translate(622.675905 267.820482) scale(0.12 -0.12)">
       <use xlink:href="#DejaVuSans-31"/>
       <use xlink:href="#DejaVuSans-34" x="63.623047"/>
       <use xlink:href="#DejaVuSans-30" x="127.246094"/>
       <use xlink:href="#DejaVuSans-30" x="190.869141"/>
      </g>
     </g>
    </g>
   </g>
   <g id="matplotlib.axis_2">
    <g id="ytick_1">
     <g id="line2d_9">
      <defs>
       <path id="m1ab4274101" d="M 0 0 
L -3.5 0 
" style="stroke: #000000; stroke-width: 0.8"/>
      </defs>
      <g>
       <use xlink:href="#m1ab4274101" x="77.654" y="230.875283" style="stroke: #000000; stroke-width: 0.8"/>
      </g>
     </g>
     <g id="text_9">
      <!-- 7950.0 -->
      <g transform="translate(28.66525 235.434346) scale(0.12 -0.12)">
       <defs>
        <path id="DejaVuSans-37" d="M 525 4666 
L 3525 4666 
L 3525 4397 
L 1831 0 
L 1172 0 
L 2766 4134 
L 525 4134 
L 525 4666 
z
" transform="scale(0.015625)"/>
        <path id="DejaVuSans-39" d="M 703 97 
L 703 672 
Q 941 559 1184 500 
Q 1428 441 1663 441 
Q 2288 441 2617 861 
Q 2947 1281 2994 2138 
Q 2813 1869 2534 1725 
Q 2256 1581 1919 1581 
Q 1219 1581 811 2004 
Q 403 2428 403 3163 
Q 403 3881 828 4315 
Q 1253 4750 1959 4750 
Q 2769 4750 3195 4129 
Q 3622 3509 3622 2328 
Q 3622 1225 3098 567 
Q 2575 -91 1691 -91 
Q 1453 -91 1209 -44 
Q 966 3 703 97 
z
M 1959 2075 
Q 2384 2075 2632 2365 
Q 2881 2656 2881 3163 
Q 2881 3666 2632 3958 
Q 2384 4250 1959 4250 
Q 1534 4250 1286 3958 
Q 1038 3666 1038 3163 
Q 1038 2656 1286 2365 
Q 1534 2075 1959 2075 
z
" transform="scale(0.015625)"/>
        <path id="DejaVuSans-35" d="M 691 4666 
L 3169 4666 
L 3169 4134 
L 1269 4134 
L 1269 2991 
Q 1406 3038 1543 3061 
Q 1681 3084 1819 3084 
Q 2600 3084 3056 2656 
Q 3513 2228 3513 1497 
Q 3513 744 3044 326 
Q 2575 -91 1722 -91 
Q 1428 -91 1123 -41 
Q 819 9 494 109 
L 494 744 
Q 775 591 1075 516 
Q 1375 441 1709 441 
Q 2250 441 2565 725 
Q 2881 1009 2881 1497 
Q 2881 1984 2565 2268 
Q 2250 2553 1709 2553 
Q 1456 2553 1204 2497 
Q 953 2441 691 2322 
L 691 4666 
z
" transform="scale(0.015625)"/>
        <path id="DejaVuSans-2e" d="M 684 794 
L 1344 794 
L 1344 0 
L 684 0 
L 684 794 
z
" transform="scale(0.015625)"/>
       </defs>
       <use xlink:href="#DejaVuSans-37"/>
       <use xlink:href="#DejaVuSans-39" x="63.623047"/>
       <use xlink:href="#DejaVuSans-35" x="127.246094"/>
       <use xlink:href="#DejaVuSans-30" x="190.869141"/>
       <use xlink:href="#DejaVuSans-2e" x="254.492188"/>
       <use xlink:href="#DejaVuSans-30" x="286.279297"/>
      </g>
     </g>
    </g>
    <g id="ytick_2">
     <g id="line2d_10">
      <g>
       <use xlink:href="#m1ab4274101" x="77.654" y="200.482937" style="stroke: #000000; stroke-width: 0.8"/>
      </g>
     </g>
     <g id="text_10">
      <!-- 7952.5 -->
      <g transform="translate(28.66525 205.042) scale(0.12 -0.12)">
       <use xlink:href="#DejaVuSans-37"/>
       <use xlink:href="#DejaVuSans-39" x="63.623047"/>
       <use xlink:href="#DejaVuSans-35" x="127.246094"/>
       <use xlink:href="#DejaVuSans-32" x="190.869141"/>
       <use xlink:href="#DejaVuSans-2e" x="254.492188"/>
       <use xlink:href="#DejaVuSans-35" x="286.279297"/>
      </g>
     </g>
    </g>
    <g id="ytick_3">
     <g id="line2d_11">
      <g>
       <use xlink:href="#m1ab4274101" x="77.654" y="170.090592" style="stroke: #000000; stroke-width: 0.8"/>
      </g>
     </g>
     <g id="text_11">
      <!-- 7955.0 -->
      <g transform="translate(28.66525 174.649654) scale(0.12 -0.12)">
       <use xlink:href="#DejaVuSans-37"/>
       <use xlink:href="#DejaVuSans-39" x="63.623047"/>
       <use xlink:href="#DejaVuSans-35" x="127.246094"/>
       <use xlink:href="#DejaVuSans-35" x="190.869141"/>
       <use xlink:href="#DejaVuSans-2e" x="254.492188"/>
       <use xlink:href="#DejaVuSans-30" x="286.279297"/>
      </g>
     </g>
    </g>
    <g id="ytick_4">
     <g id="line2d_12">
      <g>
       <use xlink:href="#m1ab4274101" x="77.654" y="139.698246" style="stroke: #000000; stroke-width: 0.8"/>
      </g>
     </g>
     <g id="text_12">
      <!-- 7957.5 -->
      <g transform="translate(28.66525 144.257309) scale(0.12 -0.12)">
       <use xlink:href="#DejaVuSans-37"/>
       <use xlink:href="#DejaVuSans-39" x="63.623047"/>
       <use xlink:href="#DejaVuSans-35" x="127.246094"/>
       <use xlink:href="#DejaVuSans-37" x="190.869141"/>
       <use xlink:href="#DejaVuSans-2e" x="254.492188"/>
       <use xlink:href="#DejaVuSans-35" x="286.279297"/>
      </g>
     </g>
    </g>
    <g id="ytick_5">
     <g id="line2d_13">
      <g>
       <use xlink:href="#m1ab4274101" x="77.654" y="109.3059" style="stroke: #000000; stroke-width: 0.8"/>
      </g>
     </g>
     <g id="text_13">
      <!-- 7960.0 -->
      <g transform="translate(28.66525 113.864963) scale(0.12 -0.12)">
       <use xlink:href="#DejaVuSans-37"/>
       <use xlink:href="#DejaVuSans-39" x="63.623047"/>
       <use xlink:href="#DejaVuSans-36" x="127.246094"/>
       <use xlink:href="#DejaVuSans-30" x="190.869141"/>
       <use xlink:href="#DejaVuSans-2e" x="254.492188"/>
       <use xlink:href="#DejaVuSans-30" x="286.279297"/>
      </g>
     </g>
    </g>
    <g id="ytick_6">
     <g id="line2d_14">
      <g>
       <use xlink:href="#m1ab4274101" x="77.654" y="78.913555" style="stroke: #000000; stroke-width: 0.8"/>
      </g>
     </g>
     <g id="text_14">
      <!-- 7962.5 -->
      <g transform="translate(28.66525 83.472617) scale(0.12 -0.12)">
       <use xlink:href="#DejaVuSans-37"/>
       <use xlink:href="#DejaVuSans-39" x="63.623047"/>
       <use xlink:href="#DejaVuSans-36" x="127.246094"/>
       <use xlink:href="#DejaVuSans-32" x="190.869141"/>
       <use xlink:href="#DejaVuSans-2e" x="254.492188"/>
       <use xlink:href="#DejaVuSans-35" x="286.279297"/>
      </g>
     </g>
    </g>
    <g id="ytick_7">
     <g id="line2d_15">
      <g>
       <use xlink:href="#m1ab4274101" x="77.654" y="48.521209" style="stroke: #000000; stroke-width: 0.8"/>
      </g>
     </g>
     <g id="text_15">
      <!-- 7965.0 -->
      <g transform="translate(28.66525 53.080272) scale(0.12 -0.12)">
       <use xlink:href="#DejaVuSans-37"/>
       <use xlink:href="#DejaVuSans-39" x="63.623047"/>
       <use xlink:href="#DejaVuSans-36" x="127.246094"/>
       <use xlink:href="#DejaVuSans-35" x="190.869141"/>
       <use xlink:href="#DejaVuSans-2e" x="254.492188"/>
       <use xlink:href="#DejaVuSans-30" x="286.279297"/>
      </g>
     </g>
    </g>
    <g id="ytick_8">
     <g id="line2d_16">
      <g>
       <use xlink:href="#m1ab4274101" x="77.654" y="18.128863" style="stroke: #000000; stroke-width: 0.8"/>
      </g>
     </g>
     <g id="text_16">
      <!-- 7967.5 -->
      <g transform="translate(28.66525 22.687926) scale(0.12 -0.12)">
       <use xlink:href="#DejaVuSans-37"/>
       <use xlink:href="#DejaVuSans-39" x="63.623047"/>
       <use xlink:href="#DejaVuSans-36" x="127.246094"/>
       <use xlink:href="#DejaVuSans-37" x="190.869141"/>
       <use xlink:href="#DejaVuSans-2e" x="254.492188"/>
       <use xlink:href="#DejaVuSans-35" x="286.279297"/>
      </g>
     </g>
    </g>
    <g id="text_17">
     <!-- voltage (V) -->
     <g transform="translate(22.169625 166.413622) rotate(-90) scale(0.12 -0.12)">
      <defs>
       <path id="DejaVuSans-76" d="M 191 3500 
L 800 3500 
L 1894 563 
L 2988 3500 
L 3597 3500 
L 2284 0 
L 1503 0 
L 191 3500 
z
" transform="scale(0.015625)"/>
       <path id="DejaVuSans-6f" d="M 1959 3097 
Q 1497 3097 1228 2736 
Q 959 2375 959 1747 
Q 959 1119 1226 758 
Q 1494 397 1959 397 
Q 2419 397 2687 759 
Q 2956 1122 2956 1747 
Q 2956 2369 2687 2733 
Q 2419 3097 1959 3097 
z
M 1959 3584 
Q 2709 3584 3137 3096 
Q 3566 2609 3566 1747 
Q 3566 888 3137 398 
Q 2709 -91 1959 -91 
Q 1206 -91 779 398 
Q 353 888 353 1747 
Q 353 2609 779 3096 
Q 1206 3584 1959 3584 
z
" transform="scale(0.015625)"/>
       <path id="DejaVuSans-6c" d="M 603 4863 
L 1178 4863 
L 1178 0 
L 603 0 
L 603 4863 
z
" transform="scale(0.015625)"/>
       <path id="DejaVuSans-74" d="M 1172 4494 
L 1172 3500 
L 2356 3500 
L 2356 3053 
L 1172 3053 
L 1172 1153 
Q 1172 725 1289 603 
Q 1406 481 1766 481 
L 2356 481 
L 2356 0 
L 1766 0 
Q 1100 0 847 248 
Q 594 497 594 1153 
L 594 3053 
L 172 3053 
L 172 3500 
L 594 3500 
L 594 4494 
L 1172 4494 
z
" transform="scale(0.015625)"/>
       <path id="DejaVuSans-61" d="M 2194 1759 
Q 1497 1759 1228 1600 
Q 959 1441 959 1056 
Q 959 750 1161 570 
Q 1363 391 1709 391 
Q 2188 391 2477 730 
Q 2766 1069 2766 1631 
L 2766 1759 
L 2194 1759 
z
M 3341 1997 
L 3341 0 
L 2766 0 
L 2766 531 
Q 2569 213 2275 61 
Q 1981 -91 1556 -91 
Q 1019 -91 701 211 
Q 384 513 384 1019 
Q 384 1609 779 1909 
Q 1175 2209 1959 2209 
L 2766 2209 
L 2766 2266 
Q 2766 2663 2505 2880 
Q 2244 3097 1772 3097 
Q 1472 3097 1187 3025 
Q 903 2953 641 2809 
L 641 3341 
Q 956 3463 1253 3523 
Q 1550 3584 1831 3584 
Q 2591 3584 2966 3190 
Q 3341 2797 3341 1997 
z
" transform="scale(0.015625)"/>
       <path id="DejaVuSans-67" d="M 2906 1791 
Q 2906 2416 2648 2759 
Q 2391 3103 1925 3103 
Q 1463 3103 1205 2759 
Q 947 2416 947 1791 
Q 947 1169 1205 825 
Q 1463 481 1925 481 
Q 2391 481 2648 825 
Q 2906 1169 2906 1791 
z
M 3481 434 
Q 3481 -459 3084 -895 
Q 2688 -1331 1869 -1331 
Q 1566 -1331 1297 -1286 
Q 1028 -1241 775 -1147 
L 775 -588 
Q 1028 -725 1275 -790 
Q 1522 -856 1778 -856 
Q 2344 -856 2625 -561 
Q 2906 -266 2906 331 
L 2906 616 
Q 2728 306 2450 153 
Q 2172 0 1784 0 
Q 1141 0 747 490 
Q 353 981 353 1791 
Q 353 2603 747 3093 
Q 1141 3584 1784 3584 
Q 2172 3584 2450 3431 
Q 2728 3278 2906 2969 
L 2906 3500 
L 3481 3500 
L 3481 434 
z
" transform="scale(0.015625)"/>
       <path id="DejaVuSans-65" d="M 3597 1894 
L 3597 1613 
L 953 1613 
Q 991 1019 1311 708 
Q 1631 397 2203 397 
Q 2534 397 2845 478 
Q 3156 559 3463 722 
L 3463 178 
Q 3153 47 2828 -22 
Q 2503 -91 2169 -91 
Q 1331 -91 842 396 
Q 353 884 353 1716 
Q 353 2575 817 3079 
Q 1281 3584 2069 3584 
Q 2775 3584 3186 3129 
Q 3597 2675 3597 1894 
z
M 3022 2063 
Q 3016 2534 2758 2815 
Q 2500 3097 2075 3097 
Q 1594 3097 1305 2825 
Q 1016 2553 972 2059 
L 3022 2063 
z
" transform="scale(0.015625)"/>
       <path id="DejaVuSans-20" transform="scale(0.015625)"/>
       <path id="DejaVuSans-28" d="M 1984 4856 
Q 1566 4138 1362 3434 
Q 1159 2731 1159 2009 
Q 1159 1288 1364 580 
Q 1569 -128 1984 -844 
L 1484 -844 
Q 1016 -109 783 600 
Q 550 1309 550 2009 
Q 550 2706 781 3412 
Q 1013 4119 1484 4856 
L 1984 4856 
z
" transform="scale(0.015625)"/>
       <path id="DejaVuSans-56" d="M 1831 0 
L 50 4666 
L 709 4666 
L 2188 738 
L 3669 4666 
L 4325 4666 
L 2547 0 
L 1831 0 
z
" transform="scale(0.015625)"/>
       <path id="DejaVuSans-29" d="M 513 4856 
L 1013 4856 
Q 1481 4119 1714 3412 
Q 1947 2706 1947 2009 
Q 1947 1309 1714 600 
Q 1481 -109 1013 -844 
L 513 -844 
Q 928 -128 1133 580 
Q 1338 1288 1338 2009 
Q 1338 2731 1133 3434 
Q 928 4138 513 4856 
z
" transform="scale(0.015625)"/>
      </defs>
      <use xlink:href="#DejaVuSans-76"/>
      <use xlink:href="#DejaVuSans-6f" x="59.179688"/>
      <use xlink:href="#DejaVuSans-6c" x="120.361328"/>
      <use xlink:href="#DejaVuSans-74" x="148.144531"/>
      <use xlink:href="#DejaVuSans-61" x="187.353516"/>
      <use xlink:href="#DejaVuSans-67" x="248.632812"/>
      <use xlink:href="#DejaVuSans-65" x="312.109375"/>
      <use xlink:href="#DejaVuSans-20" x="373.632812"/>
      <use xlink:href="#DejaVuSans-28" x="405.419922"/>
      <use xlink:href="#DejaVuSans-56" x="444.433594"/>
      <use xlink:href="#DejaVuSans-29" x="512.841797"/>
     </g>
    </g>
   </g>
   <g id="line2d_17">
    <path d="M 105.550455 33.136462 
L 105.931554 29.090808 
L 107.45595 29.901838 
L 107.837049 26.883874 
L 108.218148 31.180827 
L 109.361446 34.371573 
L 109.742545 35.290141 
L 110.123644 32.563666 
L 111.64804 30.087197 
L 112.029139 27.535241 
L 112.410238 30.833188 
L 113.934635 34.399047 
L 114.315734 31.240115 
L 114.696833 35.342051 
L 116.983428 35.56552 
L 118.126725 33.938401 
L 118.507824 33.263402 
L 119.270022 29.875523 
L 120.032221 30.087197 
L 121.175518 30.833188 
L 121.556617 27.535241 
L 122.699914 32.386832 
L 123.081013 34.294527 
L 123.843212 35.48451 
L 124.224311 35.331947 
L 124.60541 34.413378 
L 124.986509 31.222624 
L 125.748707 33.246788 
L 126.129806 33.513683 
L 126.510905 28.228188 
L 127.654203 32.428508 
L 128.7975 31.701816 
L 129.559698 35.406693 
L 130.321896 27.311839 
L 131.465194 34.371573 
L 131.846293 35.290141 
L 132.227392 31.180827 
L 133.370689 32.428508 
L 134.895086 31.701816 
L 135.276185 34.294527 
L 135.657284 35.48451 
L 137.18168 27.632805 
L 137.562779 28.549164 
L 137.943879 25.98459 
L 138.706077 32.386832 
L 139.087176 34.399047 
L 140.230473 28.549164 
L 141.37377 27.632805 
L 141.75487 25.98459 
L 142.135969 35.541543 
L 143.279266 32.563666 
L 143.660365 29.09307 
L 144.803662 29.901838 
L 145.184762 26.883874 
L 145.565861 29.090808 
L 146.328059 35.56552 
L 147.090257 35.541543 
L 148.614654 35.406693 
L 148.995753 31.304764 
L 149.376852 34.376265 
L 150.520149 33.136462 
L 151.663446 33.246788 
L 152.044545 33.513683 
L 152.806744 25.663636 
L 153.568942 29.875523 
L 153.950041 33.938401 
L 154.33114 33.263402 
" clip-path="url(#p41323a146f)" style="fill: none; stroke: #e0e4e7; stroke-width: 20; stroke-linecap: square"/>
   </g>
   <g id="line2d_18">
    <path d="M 157.379933 34.573112 
L 158.52323 36.881729 
L 158.904329 52.498347 
L 160.047627 44.78421 
L 160.428726 44.229725 
L 160.809825 30.086347 
L 161.572023 33.216576 
L 162.71532 37.398922 
L 163.09642 43.355216 
L 164.239717 46.000317 
L 164.620816 54.222473 
L 165.383014 37.480859 
L 166.145212 50.530821 
L 167.28851 43.29683 
L 167.669609 36.159991 
L 168.050708 44.278719 
L 168.431807 29.297944 
L 169.956203 41.619719 
L 170.337303 48.490569 
L 172.242798 34.573112 
L 172.623897 29.297944 
L 173.004996 30.086347 
L 175.291591 44.201602 
L 176.053789 50.530821 
L 176.434888 36.159991 
L 176.815987 43.29683 
L 179.102582 35.322884 
L 179.483681 36.881729 
L 179.86478 44.278719 
L 180.626978 44.229725 
L 182.151375 44.019022 
L 182.913573 36.497947 
L 184.437969 51.419078 
L 184.819069 54.222473 
L 185.200168 46.000317 
L 185.581267 52.498347 
L 186.724564 44.78421 
L 187.105663 43.355216 
L 187.486762 37.398922 
L 187.867861 33.216576 
L 188.248961 37.480859 
" clip-path="url(#p41323a146f)" style="fill: none; stroke: #fee1cc; stroke-width: 20; stroke-linecap: square"/>
   </g>
   <g id="line2d_19">
    <path d="M 189.773357 39.220409 
L 190.535555 57.849474 
L 192.82215 39.950916 
L 193.203249 48.111541 
L 193.584348 48.193258 
L 195.108744 48.328507 
L 195.489844 57.488174 
L 195.870943 38.63585 
L 197.395339 58.505606 
L 197.776438 48.152524 
L 199.300835 37.915826 
L 199.681934 37.819302 
L 200.063033 58.828052 
L 200.444132 39.427957 
L 200.825231 38.212377 
L 201.20633 58.505606 
L 201.968528 57.989275 
L 202.730727 39.950916 
L 204.636222 40.199547 
L 205.39842 58.828052 
L 206.160618 57.989275 
L 207.303916 57.849474 
L 208.066114 57.797591 
L 209.209411 40.199547 
L 209.97161 58.1302 
L 210.352709 39.427957 
L 211.496006 39.220409 
L 212.258204 57.797591 
" clip-path="url(#p41323a146f)" style="fill: none; stroke: #ecdcd5; stroke-width: 20; stroke-linecap: square"/>
   </g>
   <g id="line2d_20">
    <path d="M 213.782601 75.094074 
L 214.925898 50.71052 
L 215.306997 39.981794 
L 215.688096 59.572846 
L 217.593592 72.843763 
L 217.974691 63.248935 
L 218.35579 48.915203 
L 219.880186 73.512887 
L 220.261285 67.383678 
L 220.642385 49.201742 
L 221.404583 49.368253 
L 221.785682 66.114914 
L 222.166781 73.816435 
L 222.54788 51.319765 
L 222.928979 39.940311 
L 223.310078 59.248074 
L 224.072276 74.931838 
L 225.596673 39.976296 
L 226.358871 51.092385 
L 227.883268 52.296969 
L 228.264367 61.144635 
L 228.645466 40.853477 
L 230.169862 59.299204 
L 231.313159 59.201356 
L 231.694259 66.7363 
L 234.361952 60.738101 
L 234.743051 69.82878 
L 235.124151 73.670131 
L 235.50525 46.998844 
L 237.791844 39.67321 
L 238.172943 59.031921 
L 238.554042 50.164742 
L 240.078439 49.284387 
L 240.840637 50.658096 
L 241.221736 39.860198 
L 241.983934 74.448774 
L 243.508331 59.245411 
L 243.88943 68.051558 
L 244.651628 45.841632 
L 246.176025 51.192986 
L 246.557124 76.835326 
L 246.938223 61.932205 
L 247.319322 41.266876 
L 247.700421 53.092429 
L 248.462619 68.035974 
L 249.987016 63.450372 
L 250.368115 73.112393 
L 253.798007 41.129061 
L 254.179106 61.669659 
L 254.560205 52.827256 
L 256.084601 68.850883 
L 256.4657 60.044591 
L 256.8468 46.640681 
L 257.990097 49.68731 
L 258.752295 67.091306 
L 259.133394 50.138735 
L 259.895592 66.114914 
L 260.276692 49.368253 
L 260.657791 67.11525 
L 261.03889 49.238006 
L 261.419989 73.574738 
L 262.944385 51.199202 
L 263.706583 74.023493 
L 265.23098 60.638876 
L 265.612079 40.597181 
L 265.993178 51.785973 
L 267.517575 77.053848 
L 267.898674 73.383411 
L 268.279773 63.672598 
L 268.660872 50.305381 
L 270.185268 60.598545 
L 270.566367 40.55686 
L 270.947466 51.745652 
L 271.328566 50.183187 
L 271.709665 67.112471 
L 272.090764 76.899389 
L 273.61516 53.704435 
L 274.758458 62.5379 
L 276.663953 41.573253 
L 278.188349 59.282547 
L 278.950548 59.52336 
L 279.331647 46.058747 
L 279.712746 68.381108 
L 280.856043 68.871091 
L 281.237142 60.064794 
L 281.618241 46.660876 
L 283.142638 75.221563 
L 283.904836 63.962188 
L 284.285935 50.870185 
L 284.667034 73.694384 
L 286.191431 39.949463 
L 287.334728 73.816435 
L 288.096926 50.71052 
L 289.240224 51.785973 
L 290.002422 60.638876 
L 290.383521 40.597181 
L 290.76462 75.094074 
L 291.907917 50.305381 
L 292.289016 76.899389 
L 293.051215 67.383678 
L 293.813413 74.448774 
L 294.95671 50.88819 
L 295.337809 59.282547 
L 296.481107 51.199202 
L 296.862206 64.29122 
L 298.005503 50.658096 
L 298.767701 76.835326 
L 299.529899 51.192986 
L 300.292098 68.035974 
L 301.054296 60.044591 
L 301.816494 39.949463 
L 302.959791 77.053848 
L 303.72199 53.092429 
L 304.103089 61.932205 
L 305.246386 41.266876 
L 305.627485 74.023493 
L 306.389683 68.850883 
L 306.770782 51.319765 
L 307.151882 46.640681 
L 307.91408 68.871091 
L 308.295179 46.660876 
L 309.819575 60.064794 
L 310.200674 66.7363 
L 311.343972 46.998844 
L 312.487269 60.738101 
L 312.868368 69.82878 
L 313.630566 39.981794 
L 315.154963 59.572846 
L 315.917161 75.221563 
L 316.679359 49.68731 
L 317.441557 74.931838 
L 318.203756 59.299204 
L 318.584855 39.976296 
L 319.347053 51.092385 
L 320.49035 50.870185 
L 320.871449 40.853477 
L 321.252548 52.296969 
L 322.776945 61.144635 
L 323.539143 59.52336 
L 324.301341 46.058747 
L 325.063539 68.381108 
L 325.063539 68.381108 
" clip-path="url(#p41323a146f)" style="fill: none; stroke: #f7cce3; stroke-width: 20; stroke-linecap: square"/>
   </g>
   <g id="line2d_21">
    <path d="M 325.825738 80.168996 
L 327.350134 83.377102 
L 328.874531 151.039436 
L 329.25563 177.733192 
L 330.780026 151.097144 
L 331.542224 83.319459 
L 331.923323 177.790963 
L 332.685522 133.906931 
L 333.44772 69.041983 
L 333.828819 151.355783 
L 334.972116 131.574761 
L 335.353215 84.02292 
L 336.115414 163.785145 
L 336.877612 177.798362 
L 337.258711 151.104585 
L 337.63981 83.384527 
L 341.069702 163.566118 
L 341.450801 133.639904 
L 341.8319 84.237087 
L 343.737396 83.386459 
L 344.118495 151.106507 
L 345.261792 111.597377 
L 346.02399 49.713512 
L 346.786189 177.800331 
L 348.310585 75.401064 
L 349.072783 145.760027 
L 349.834981 162.539122 
L 350.59718 150.43164 
L 350.978279 88.206673 
L 352.121576 114.245566 
L 352.883774 108.512513 
L 353.264873 165.080547 
L 354.408171 115.286906 
L 354.78927 87.431084 
L 355.170369 111.580064 
L 356.694765 128.353637 
L 357.075864 91.134584 
L 357.456963 165.825632 
L 358.219162 160.792488 
L 360.505756 91.172416 
L 360.886855 165.863515 
L 361.267955 128.391484 
L 362.030153 79.697973 
L 362.411252 115.763027 
L 363.935648 84.590486 
L 364.316747 133.993599 
L 364.697846 163.919937 
L 366.603342 159.678067 
L 366.984441 80.636138 
L 368.508838 85.78944 
L 369.271036 164.363918 
L 369.652135 126.479152 
L 372.700928 110.067989 
L 373.463126 114.222478 
L 374.225324 148.437422 
L 375.749721 130.576146 
L 376.13082 164.637469 
L 376.511919 86.65906 
L 377.274117 76.306468 
L 378.417414 163.852477 
L 378.798513 173.221893 
L 379.179613 83.395107 
L 379.560712 144.896239 
L 379.941811 83.294828 
L 380.32291 175.921717 
L 381.466207 133.926146 
L 382.228405 83.315286 
L 382.609504 131.786961 
L 382.990604 163.528913 
L 384.515 84.523098 
L 384.896099 148.592205 
L 385.277198 145.892122 
L 385.658297 114.955637 
L 386.801595 133.926146 
L 387.563793 163.852477 
L 387.944892 84.523098 
L 388.70709 110.067989 
L 389.088189 83.294828 
L 389.850387 75.533024 
L 390.231487 148.592205 
L 390.612586 175.921717 
L 391.374784 83.346271 
L 392.136982 177.760064 
L 392.518081 151.066281 
L 394.423577 130.921083 
L 394.804676 85.78944 
L 395.566874 130.576146 
L 395.947973 164.637469 
L 396.329072 86.65906 
L 396.710171 83.386459 
L 397.09127 111.892407 
L 397.853469 111.597377 
L 398.996766 145.892122 
L 399.377865 75.533024 
L 400.521162 115.763027 
L 400.902262 164.363918 
L 402.426658 133.811347 
L 402.807757 163.737628 
L 403.569955 84.408387 
L 404.332154 76.740083 
L 405.85655 135.292902 
L 406.618748 87.431084 
L 407.380946 144.896239 
L 408.524244 83.395107 
L 408.905343 173.221893 
L 409.667541 129.173205 
L 410.04864 89.605382 
L 411.573037 79.697973 
L 411.954136 165.449212 
L 412.716334 84.02292 
L 413.097433 131.574761 
L 413.859631 163.785145 
L 414.24073 133.906931 
L 415.002928 83.419489 
L 415.384028 139.189043 
L 416.146226 169.017993 
L 416.908424 177.800331 
L 417.670622 160.792488 
L 418.43282 69.041983 
L 418.81392 49.713512 
L 419.957217 161.575752 
L 420.338316 163.919937 
L 421.862712 133.993599 
L 422.624911 84.590486 
L 423.768208 91.172416 
L 424.149307 165.863515 
L 424.911505 128.391484 
L 426.054803 114.245566 
L 426.817001 115.286906 
L 427.1981 109.242257 
L 428.341397 151.106507 
L 428.722496 76.523535 
L 429.103595 166.243805 
L 430.627992 83.381136 
L 431.009091 135.442724 
L 431.771289 113.36717 
L 432.152388 151.097144 
L 432.533487 83.377102 
L 434.057884 177.790963 
L 434.438983 111.465335 
L 435.201181 75.401064 
L 435.58228 145.760027 
L 437.106677 161.111493 
L 437.487776 150.43164 
L 439.77437 111.416815 
L 440.536569 110.698878 
L 441.298767 133.742411 
L 442.060965 84.339507 
L 442.823163 163.668663 
L 443.585361 123.401644 
L 444.728659 83.324655 
L 445.109758 177.738402 
L 445.490857 151.044637 
L 446.253055 111.519265 
L 447.015253 133.753569 
L 447.396352 122.136444 
L 448.158551 133.545766 
L 450.445145 162.539122 
L 451.207344 151.090346 
L 451.969542 151.355783 
L 453.875037 80.168996 
L 454.256136 114.955637 
L 455.399434 124.984487 
L 455.780533 149.172865 
L 456.542731 129.873221 
L 458.067127 88.206673 
L 458.448227 165.080547 
L 459.210425 134.698758 
L 459.591524 163.535776 
L 459.972623 133.635722 
L 460.353722 84.232911 
L 460.734821 163.34104 
L 461.497019 160.290949 
L 462.259218 68.957247 
L 463.402515 87.346339 
L 463.783614 49.628814 
L 464.164713 133.639904 
L 464.545812 163.566118 
L 466.070209 84.237087 
L 467.594605 83.384527 
L 467.975704 177.798362 
L 468.356803 151.104585 
L 468.737902 163.561943 
L 471.405596 161.111493 
L 472.167794 139.189043 
L 472.548893 83.419489 
L 472.929993 169.017993 
L 475.216587 151.066281 
L 475.597686 83.346271 
L 475.978785 177.760064 
L 477.503182 161.575752 
L 477.884281 113.36717 
L 478.26538 135.292902 
L 478.646479 76.523535 
L 479.408677 83.324655 
L 479.789776 151.044637 
L 480.170876 177.738402 
L 480.551975 133.545766 
L 481.314173 151.090346 
L 482.838569 84.162115 
L 483.219668 163.491054 
L 483.600768 133.564858 
L 485.125164 134.698758 
L 485.887362 163.34104 
L 486.64956 133.811347 
L 488.173957 133.742411 
L 488.555056 84.339507 
L 488.936155 163.668663 
L 489.317254 163.737628 
L 490.841651 111.416815 
L 491.603849 111.519265 
L 492.366047 110.698878 
L 493.128245 84.408387 
L 494.271542 177.624329 
L 494.652642 83.210847 
L 495.033741 150.930632 
L 496.558137 149.172865 
L 497.320335 76.740083 
L 498.082534 165.449212 
L 498.844732 89.605382 
L 501.131326 111.580064 
L 501.893525 122.136444 
L 502.274624 135.442724 
L 502.655723 166.243805 
L 504.180119 49.628814 
L 504.561218 87.346339 
L 504.942317 68.957247 
L 506.085615 83.381136 
L 507.228912 133.635722 
L 508.753308 154.157126 
L 509.134408 78.993122 
L 509.515507 121.102595 
L 510.277705 124.984487 
L 510.658804 84.232911 
L 511.421002 163.561943 
L 512.1832 123.401644 
L 512.945399 109.242257 
L 513.707597 133.753569 
L 514.469795 163.199276 
L 514.850894 133.273171 
L 515.613092 83.870683 
L 517.518588 160.290949 
L 519.042984 163.535776 
L 519.424083 49.61337 
L 520.186282 87.330888 
L 520.186282 87.330888 
" clip-path="url(#p41323a146f)" style="fill: none; stroke: #dfeed1; stroke-width: 20; stroke-linecap: square"/>
   </g>
   <g id="line2d_22">
    <path d="M 522.091777 205.36188 
L 522.472876 205.742522 
L 523.235075 198.403838 
L 523.997273 108.799209 
L 524.378372 206.947028 
L 525.14057 109.662225 
L 525.521669 206.796694 
L 526.283867 84.4388 
L 526.664966 154.939578 
L 527.046066 180.90676 
L 530.475958 218.947339 
L 530.857057 115.032626 
L 532.000354 206.018476 
L 532.381453 197.662009 
L 533.52475 84.102329 
L 533.905849 195.914227 
L 534.286949 175.966931 
L 535.049147 205.849211 
L 535.811345 93.101826 
L 536.573543 199.923028 
L 536.954642 200.550212 
L 537.716841 178.277462 
L 538.479039 197.717911 
L 540.003435 101.609971 
L 541.527832 195.676048 
L 541.908931 84.019016 
L 542.671129 197.681917 
L 543.433327 108.079365 
L 544.195525 200.880297 
L 545.719922 180.8326 
L 546.101021 227.396183 
L 546.863219 198.85306 
L 547.244318 93.229212 
L 547.625417 199.481018 
L 548.387615 216.243489 
L 549.149814 201.088304 
L 549.912012 196.3297 
L 551.055309 155.920849 
L 554.485201 201.54795 
L 555.247399 178.717364 
L 556.009598 196.301708 
L 556.390697 195.679565 
L 557.533994 203.231763 
L 558.296192 201.052804 
L 558.677291 239.313461 
L 559.820589 196.743257 
L 560.582787 195.07929 
L 560.963886 238.471253 
L 562.107183 154.951416 
L 562.488282 180.918601 
L 563.250481 200.411791 
L 564.012679 113.98256 
L 564.774877 111.994867 
L 565.537075 91.685443 
L 566.299273 178.637307 
L 567.061472 113.164418 
L 567.82367 84.450625 
L 568.204769 107.214031 
L 570.110265 235.194528 
L 570.491364 221.089435 
L 571.634661 217.827883 
L 572.01576 92.842815 
L 572.777958 240.938608 
L 573.921256 198.485267 
L 574.683454 200.033064 
L 575.445652 204.693584 
L 576.588949 239.873021 
L 576.970048 177.684982 
L 578.113346 178.903251 
L 579.256643 90.112208 
L 579.637742 210.575438 
L 580.018841 188.285068 
L 580.781039 205.913339 
L 583.067634 92.200244 
L 583.448733 203.16168 
L 583.829832 204.309738 
L 584.592031 108.57444 
L 584.97313 114.579615 
L 585.735328 196.163776 
L 587.259724 174.305594 
L 587.640823 84.099214 
L 588.021923 195.087251 
L 589.927418 236.957266 
L 590.308517 198.485267 
L 590.689616 179.242637 
L 591.070715 200.531727 
L 591.832914 115.032626 
L 592.595112 200.071451 
L 593.35731 108.611614 
L 593.738409 197.662009 
L 594.881706 206.947028 
L 595.262806 238.471253 
L 596.406103 179.242637 
L 596.787202 205.36188 
L 597.930499 218.947339 
L 598.311598 198.403838 
L 599.454896 109.662225 
L 600.598193 199.069794 
L 600.979292 204.693584 
L 602.503689 180.918601 
L 602.884788 154.951416 
L 603.265887 84.450625 
L 603.646986 200.033064 
L 604.790283 217.827883 
L 605.552481 113.98256 
L 606.695779 205.742522 
L 607.457977 108.079365 
L 607.839076 205.913339 
L 608.220175 115.239349 
L 608.601274 85.327933 
L 608.982373 108.799209 
L 609.363472 188.529292 
L 609.744572 203.16168 
L 610.50677 113.164418 
L 611.650067 178.637307 
L 612.031166 220.3217 
L 613.555563 111.994867 
L 614.317761 197.681917 
L 615.079959 92.842815 
L 615.842157 198.85306 
L 616.985455 197.717911 
L 617.747653 165.649301 
L 618.128752 83.413657 
L 618.89095 84.933384 
L 620.034247 206.018476 
L 620.796446 238.716409 
L 621.558644 199.923028 
L 622.701941 93.229212 
L 623.464139 200.707712 
L 624.607437 240.938608 
L 624.988536 108.57444 
L 626.131833 108.165116 
L 626.894031 205.849211 
L 628.037329 200.071451 
L 628.799527 200.531727 
L 629.180626 84.933384 
L 630.705022 201.54795 
L 631.086121 200.707712 
L 631.467221 201.332785 
L 631.84832 216.243489 
L 632.991617 114.579615 
L 633.753815 200.550212 
L 634.134914 200.880297 
L 634.897113 154.939578 
L 635.659311 84.4388 
L 636.421509 85.327933 
L 637.183707 115.239349 
L 637.564806 238.716409 
L 638.708104 239.327185 
L 639.470302 199.069794 
L 640.994698 83.404623 
L 641.375797 165.640248 
L 641.756896 188.520238 
L 642.519095 201.332785 
L 642.900194 220.3217 
L 643.662392 108.611614 
L 645.186788 180.90676 
L 646.330086 201.088304 
L 646.711185 239.327185 
L 647.473383 221.089435 
L 648.61668 92.200244 
L 649.759978 235.194528 
L 650.141077 178.717364 
L 650.522176 196.163776 
L 651.665473 178.277462 
L 652.427671 239.873021 
L 652.80877 206.796694 
L 653.952068 195.679565 
L 654.714266 204.309738 
L 655.857563 200.411791 
L 656.238662 196.743257 
L 657.000861 196.3297 
L 657.763059 201.052804 
L 658.525257 239.313461 
L 659.287455 177.684982 
L 660.811852 203.231763 
L 661.955149 178.903251 
L 662.336248 93.101826 
L 663.479545 82.601018 
L 663.479545 82.601018 
" clip-path="url(#p41323a146f)" style="fill: none; stroke: #ccdcfc; stroke-width: 20; stroke-linecap: square"/>
   </g>
   <g id="patch_3">
    <path d="M 77.654 251.702357 
L 77.654 14.899888 
" style="fill: none; stroke: #000000; stroke-width: 0.8; stroke-linejoin: miter; stroke-linecap: square"/>
   </g>
   <g id="patch_4">
    <path d="M 691.376 251.702357 
L 691.376 14.899888 
" style="fill: none; stroke: #000000; stroke-width: 0.8; stroke-linejoin: miter; stroke-linecap: square"/>
   </g>
   <g id="patch_5">
    <path d="M 77.654 251.702357 
L 691.376 251.702357 
" style="fill: none; stroke: #000000; stroke-width: 0.8; stroke-linejoin: miter; stroke-linecap: square"/>
   </g>
   <g id="patch_6">
    <path d="M 77.654 14.899888 
L 691.376 14.899888 
" style="fill: none; stroke: #000000; stroke-width: 0.8; stroke-linejoin: miter; stroke-linecap: square"/>
   </g>
  </g>
  <g id="axes_2">
   <g id="patch_7">
    <path d="M 77.654 520.128825 
L 691.376 520.128825 
L 691.376 283.326357 
L 77.654 283.326357 
z
" style="fill: #ffffff"/>
   </g>
   <g id="matplotlib.axis_3">
    <g id="xtick_9">
     <g id="line2d_23">
      <g>
       <use xlink:href="#me8a2b40d2a" x="104.407157" y="520.128825" style="stroke: #000000; stroke-width: 0.8"/>
      </g>
     </g>
     <g id="text_18">
      <!-- 0 -->
      <g transform="translate(100.589657 536.24695) scale(0.12 -0.12)">
       <use xlink:href="#DejaVuSans-30"/>
      </g>
     </g>
    </g>
    <g id="xtick_10">
     <g id="line2d_24">
      <g>
       <use xlink:href="#me8a2b40d2a" x="180.626978" y="520.128825" style="stroke: #000000; stroke-width: 0.8"/>
      </g>
     </g>
     <g id="text_19">
      <!-- 200 -->
      <g transform="translate(169.174478 536.24695) scale(0.12 -0.12)">
       <use xlink:href="#DejaVuSans-32"/>
       <use xlink:href="#DejaVuSans-30" x="63.623047"/>
       <use xlink:href="#DejaVuSans-30" x="127.246094"/>
      </g>
     </g>
    </g>
    <g id="xtick_11">
     <g id="line2d_25">
      <g>
       <use xlink:href="#me8a2b40d2a" x="256.8468" y="520.128825" style="stroke: #000000; stroke-width: 0.8"/>
      </g>
     </g>
     <g id="text_20">
      <!-- 400 -->
      <g transform="translate(245.3943 536.24695) scale(0.12 -0.12)">
       <use xlink:href="#DejaVuSans-34"/>
       <use xlink:href="#DejaVuSans-30" x="63.623047"/>
       <use xlink:href="#DejaVuSans-30" x="127.246094"/>
      </g>
     </g>
    </g>
    <g id="xtick_12">
     <g id="line2d_26">
      <g>
       <use xlink:href="#me8a2b40d2a" x="333.066621" y="520.128825" style="stroke: #000000; stroke-width: 0.8"/>
      </g>
     </g>
     <g id="text_21">
      <!-- 600 -->
      <g transform="translate(321.614121 536.24695) scale(0.12 -0.12)">
       <use xlink:href="#DejaVuSans-36"/>
       <use xlink:href="#DejaVuSans-30" x="63.623047"/>
       <use xlink:href="#DejaVuSans-30" x="127.246094"/>
      </g>
     </g>
    </g>
    <g id="xtick_13">
     <g id="line2d_27">
      <g>
       <use xlink:href="#me8a2b40d2a" x="409.286442" y="520.128825" style="stroke: #000000; stroke-width: 0.8"/>
      </g>
     </g>
     <g id="text_22">
      <!-- 800 -->
      <g transform="translate(397.833942 536.24695) scale(0.12 -0.12)">
       <use xlink:href="#DejaVuSans-38"/>
       <use xlink:href="#DejaVuSans-30" x="63.623047"/>
       <use xlink:href="#DejaVuSans-30" x="127.246094"/>
      </g>
     </g>
    </g>
    <g id="xtick_14">
     <g id="line2d_28">
      <g>
       <use xlink:href="#me8a2b40d2a" x="485.506263" y="520.128825" style="stroke: #000000; stroke-width: 0.8"/>
      </g>
     </g>
     <g id="text_23">
      <!-- 1000 -->
      <g transform="translate(470.236263 536.24695) scale(0.12 -0.12)">
       <use xlink:href="#DejaVuSans-31"/>
       <use xlink:href="#DejaVuSans-30" x="63.623047"/>
       <use xlink:href="#DejaVuSans-30" x="127.246094"/>
       <use xlink:href="#DejaVuSans-30" x="190.869141"/>
      </g>
     </g>
    </g>
    <g id="xtick_15">
     <g id="line2d_29">
      <g>
       <use xlink:href="#me8a2b40d2a" x="561.726084" y="520.128825" style="stroke: #000000; stroke-width: 0.8"/>
      </g>
     </g>
     <g id="text_24">
      <!-- 1200 -->
      <g transform="translate(546.456084 536.24695) scale(0.12 -0.12)">
       <use xlink:href="#DejaVuSans-31"/>
       <use xlink:href="#DejaVuSans-32" x="63.623047"/>
       <use xlink:href="#DejaVuSans-30" x="127.246094"/>
       <use xlink:href="#DejaVuSans-30" x="190.869141"/>
      </g>
     </g>
    </g>
    <g id="xtick_16">
     <g id="line2d_30">
      <g>
       <use xlink:href="#me8a2b40d2a" x="637.945905" y="520.128825" style="stroke: #000000; stroke-width: 0.8"/>
      </g>
     </g>
     <g id="text_25">
      <!-- 1400 -->
      <g transform="translate(622.675905 536.24695) scale(0.12 -0.12)">
       <use xlink:href="#DejaVuSans-31"/>
       <use xlink:href="#DejaVuSans-34" x="63.623047"/>
       <use xlink:href="#DejaVuSans-30" x="127.246094"/>
       <use xlink:href="#DejaVuSans-30" x="190.869141"/>
      </g>
     </g>
    </g>
   </g>
   <g id="matplotlib.axis_4">
    <g id="ytick_9">
     <g id="line2d_31">
      <g>
       <use xlink:href="#m1ab4274101" x="77.654" y="509.365077" style="stroke: #000000; stroke-width: 0.8"/>
      </g>
     </g>
     <g id="text_26">
      <!-- 0 -->
      <g transform="translate(63.019 513.924139) scale(0.12 -0.12)">
       <use xlink:href="#DejaVuSans-30"/>
      </g>
     </g>
    </g>
    <g id="ytick_10">
     <g id="line2d_32">
      <g>
       <use xlink:href="#m1ab4274101" x="77.654" y="482.343829" style="stroke: #000000; stroke-width: 0.8"/>
      </g>
     </g>
     <g id="text_27">
      <!-- 1000 -->
      <g transform="translate(40.114 486.902892) scale(0.12 -0.12)">
       <use xlink:href="#DejaVuSans-31"/>
       <use xlink:href="#DejaVuSans-30" x="63.623047"/>
       <use xlink:href="#DejaVuSans-30" x="127.246094"/>
       <use xlink:href="#DejaVuSans-30" x="190.869141"/>
      </g>
     </g>
    </g>
    <g id="ytick_11">
     <g id="line2d_33">
      <g>
       <use xlink:href="#m1ab4274101" x="77.654" y="455.322581" style="stroke: #000000; stroke-width: 0.8"/>
      </g>
     </g>
     <g id="text_28">
      <!-- 2000 -->
      <g transform="translate(40.114 459.881644) scale(0.12 -0.12)">
       <use xlink:href="#DejaVuSans-32"/>
       <use xlink:href="#DejaVuSans-30" x="63.623047"/>
       <use xlink:href="#DejaVuSans-30" x="127.246094"/>
       <use xlink:href="#DejaVuSans-30" x="190.869141"/>
      </g>
     </g>
    </g>
    <g id="ytick_12">
     <g id="line2d_34">
      <g>
       <use xlink:href="#m1ab4274101" x="77.654" y="428.301333" style="stroke: #000000; stroke-width: 0.8"/>
      </g>
     </g>
     <g id="text_29">
      <!-- 3000 -->
      <g transform="translate(40.114 432.860396) scale(0.12 -0.12)">
       <defs>
        <path id="DejaVuSans-33" d="M 2597 2516 
Q 3050 2419 3304 2112 
Q 3559 1806 3559 1356 
Q 3559 666 3084 287 
Q 2609 -91 1734 -91 
Q 1441 -91 1130 -33 
Q 819 25 488 141 
L 488 750 
Q 750 597 1062 519 
Q 1375 441 1716 441 
Q 2309 441 2620 675 
Q 2931 909 2931 1356 
Q 2931 1769 2642 2001 
Q 2353 2234 1838 2234 
L 1294 2234 
L 1294 2753 
L 1863 2753 
Q 2328 2753 2575 2939 
Q 2822 3125 2822 3475 
Q 2822 3834 2567 4026 
Q 2313 4219 1838 4219 
Q 1578 4219 1281 4162 
Q 984 4106 628 3988 
L 628 4550 
Q 988 4650 1302 4700 
Q 1616 4750 1894 4750 
Q 2613 4750 3031 4423 
Q 3450 4097 3450 3541 
Q 3450 3153 3228 2886 
Q 3006 2619 2597 2516 
z
" transform="scale(0.015625)"/>
       </defs>
       <use xlink:href="#DejaVuSans-33"/>
       <use xlink:href="#DejaVuSans-30" x="63.623047"/>
       <use xlink:href="#DejaVuSans-30" x="127.246094"/>
       <use xlink:href="#DejaVuSans-30" x="190.869141"/>
      </g>
     </g>
    </g>
    <g id="ytick_13">
     <g id="line2d_35">
      <g>
       <use xlink:href="#m1ab4274101" x="77.654" y="401.280086" style="stroke: #000000; stroke-width: 0.8"/>
      </g>
     </g>
     <g id="text_30">
      <!-- 4000 -->
      <g transform="translate(40.114 405.839148) scale(0.12 -0.12)">
       <use xlink:href="#DejaVuSans-34"/>
       <use xlink:href="#DejaVuSans-30" x="63.623047"/>
       <use xlink:href="#DejaVuSans-30" x="127.246094"/>
       <use xlink:href="#DejaVuSans-30" x="190.869141"/>
      </g>
     </g>
    </g>
    <g id="ytick_14">
     <g id="line2d_36">
      <g>
       <use xlink:href="#m1ab4274101" x="77.654" y="374.258838" style="stroke: #000000; stroke-width: 0.8"/>
      </g>
     </g>
     <g id="text_31">
      <!-- 5000 -->
      <g transform="translate(40.114 378.8179) scale(0.12 -0.12)">
       <use xlink:href="#DejaVuSans-35"/>
       <use xlink:href="#DejaVuSans-30" x="63.623047"/>
       <use xlink:href="#DejaVuSans-30" x="127.246094"/>
       <use xlink:href="#DejaVuSans-30" x="190.869141"/>
      </g>
     </g>
    </g>
    <g id="ytick_15">
     <g id="line2d_37">
      <g>
       <use xlink:href="#m1ab4274101" x="77.654" y="347.23759" style="stroke: #000000; stroke-width: 0.8"/>
      </g>
     </g>
     <g id="text_32">
      <!-- 6000 -->
      <g transform="translate(40.114 351.796653) scale(0.12 -0.12)">
       <use xlink:href="#DejaVuSans-36"/>
       <use xlink:href="#DejaVuSans-30" x="63.623047"/>
       <use xlink:href="#DejaVuSans-30" x="127.246094"/>
       <use xlink:href="#DejaVuSans-30" x="190.869141"/>
      </g>
     </g>
    </g>
    <g id="ytick_16">
     <g id="line2d_38">
      <g>
       <use xlink:href="#m1ab4274101" x="77.654" y="320.216342" style="stroke: #000000; stroke-width: 0.8"/>
      </g>
     </g>
     <g id="text_33">
      <!-- 7000 -->
      <g transform="translate(40.114 324.775405) scale(0.12 -0.12)">
       <use xlink:href="#DejaVuSans-37"/>
       <use xlink:href="#DejaVuSans-30" x="63.623047"/>
       <use xlink:href="#DejaVuSans-30" x="127.246094"/>
       <use xlink:href="#DejaVuSans-30" x="190.869141"/>
      </g>
     </g>
    </g>
    <g id="ytick_17">
     <g id="line2d_39">
      <g>
       <use xlink:href="#m1ab4274101" x="77.654" y="293.195095" style="stroke: #000000; stroke-width: 0.8"/>
      </g>
     </g>
     <g id="text_34">
      <!-- 8000 -->
      <g transform="translate(40.114 297.754157) scale(0.12 -0.12)">
       <use xlink:href="#DejaVuSans-38"/>
       <use xlink:href="#DejaVuSans-30" x="63.623047"/>
       <use xlink:href="#DejaVuSans-30" x="127.246094"/>
       <use xlink:href="#DejaVuSans-30" x="190.869141"/>
      </g>
     </g>
    </g>
    <g id="text_35">
     <!-- voltage (V) -->
     <g transform="translate(33.618375 434.840091) rotate(-90) scale(0.12 -0.12)">
      <use xlink:href="#DejaVuSans-76"/>
      <use xlink:href="#DejaVuSans-6f" x="59.179688"/>
      <use xlink:href="#DejaVuSans-6c" x="120.361328"/>
      <use xlink:href="#DejaVuSans-74" x="148.144531"/>
      <use xlink:href="#DejaVuSans-61" x="187.353516"/>
      <use xlink:href="#DejaVuSans-67" x="248.632812"/>
      <use xlink:href="#DejaVuSans-65" x="312.109375"/>
      <use xlink:href="#DejaVuSans-20" x="373.632812"/>
      <use xlink:href="#DejaVuSans-28" x="405.419922"/>
      <use xlink:href="#DejaVuSans-56" x="444.433594"/>
      <use xlink:href="#DejaVuSans-29" x="512.841797"/>
     </g>
    </g>
   </g>
   <g id="line2d_40">
    <path d="M 105.550455 294.106784 
L 105.931554 294.097752 
L 107.45595 294.099562 
L 107.837049 294.09283 
L 108.218148 294.102428 
L 109.361446 294.109539 
L 109.742545 294.111592 
L 110.123644 294.105504 
L 111.64804 294.099976 
L 112.029139 294.094285 
L 112.410238 294.101641 
L 113.934635 294.109601 
L 114.315734 294.10256 
L 114.696833 294.111708 
L 116.983428 294.112207 
L 118.126725 294.108574 
L 118.507824 294.107066 
L 119.270022 294.099512 
L 120.032221 294.099976 
L 121.175518 294.101641 
L 121.556617 294.094285 
L 122.699914 294.10512 
L 123.081013 294.109368 
L 123.843212 294.112026 
L 124.224311 294.111686 
L 124.60541 294.109633 
L 124.986509 294.102521 
L 125.748707 294.107028 
L 126.129806 294.107625 
L 126.510905 294.095826 
L 127.654203 294.105213 
L 128.7975 294.103591 
L 129.559698 294.111852 
L 130.321896 294.093781 
L 131.465194 294.109539 
L 131.846293 294.111592 
L 132.227392 294.102428 
L 133.370689 294.105213 
L 134.895086 294.103591 
L 135.276185 294.109368 
L 135.657284 294.112026 
L 137.18168 294.094498 
L 137.562779 294.096542 
L 137.943879 294.090822 
L 138.706077 294.10512 
L 139.087176 294.109601 
L 140.230473 294.096542 
L 141.37377 294.094498 
L 141.75487 294.090822 
L 142.135969 294.112154 
L 143.279266 294.105504 
L 143.660365 294.097764 
L 144.803662 294.099562 
L 145.184762 294.09283 
L 145.565861 294.097752 
L 146.328059 294.112207 
L 147.090257 294.112154 
L 148.614654 294.111852 
L 148.995753 294.102704 
L 149.376852 294.10955 
L 150.520149 294.106784 
L 151.663446 294.107028 
L 152.044545 294.107625 
L 152.806744 294.090105 
L 153.568942 294.099512 
L 153.950041 294.108574 
L 154.33114 294.107066 
" clip-path="url(#pb0d747c3e7)" style="fill: none; stroke: #e0e4e7; stroke-width: 20; stroke-linecap: square"/>
   </g>
   <g id="line2d_41">
    <path d="M 157.379933 294.110014 
L 158.52323 294.115298 
L 158.904329 294.150155 
L 160.047627 294.132919 
L 160.428726 294.131674 
L 160.809825 294.099997 
L 161.572023 294.107049 
L 162.71532 294.116373 
L 163.09642 294.129678 
L 164.239717 294.135645 
L 164.620816 294.154017 
L 165.383014 294.116649 
L 166.145212 294.145748 
L 167.28851 294.129585 
L 167.669609 294.113672 
L 168.050708 294.131783 
L 168.431807 294.098242 
L 169.956203 294.125828 
L 170.337303 294.141179 
L 172.242798 294.110014 
L 172.623897 294.098242 
L 173.004996 294.099997 
L 175.291591 294.131611 
L 176.053789 294.145748 
L 176.434888 294.113672 
L 176.815987 294.129585 
L 179.102582 294.111789 
L 179.483681 294.115298 
L 179.86478 294.131783 
L 180.626978 294.131674 
L 182.151375 294.131204 
L 182.913573 294.114434 
L 184.437969 294.147738 
L 184.819069 294.154017 
L 185.200168 294.135645 
L 185.581267 294.150155 
L 186.724564 294.132919 
L 187.105663 294.129678 
L 187.486762 294.116373 
L 187.867861 294.107049 
L 188.248961 294.116649 
" clip-path="url(#pb0d747c3e7)" style="fill: none; stroke: #fee1cc; stroke-width: 20; stroke-linecap: square"/>
   </g>
   <g id="line2d_42">
    <path d="M 189.773357 294.12056 
L 190.535555 294.162137 
L 192.82215 294.122192 
L 193.203249 294.140379 
L 193.584348 294.140561 
L 195.108744 294.140865 
L 195.489844 294.161333 
L 195.870943 294.119253 
L 197.395339 294.163602 
L 197.776438 294.140471 
L 199.300835 294.117644 
L 199.681934 294.117429 
L 200.063033 294.164322 
L 200.444132 294.121024 
L 200.825231 294.118306 
L 201.20633 294.163602 
L 201.968528 294.162452 
L 202.730727 294.122192 
L 204.636222 294.122747 
L 205.39842 294.164322 
L 206.160618 294.162452 
L 207.303916 294.162137 
L 208.066114 294.162021 
L 209.209411 294.122747 
L 209.97161 294.162764 
L 210.352709 294.121024 
L 211.496006 294.12056 
L 212.258204 294.162021 
" clip-path="url(#pb0d747c3e7)" style="fill: none; stroke: #ecdcd5; stroke-width: 20; stroke-linecap: square"/>
   </g>
   <g id="line2d_43">
    <path d="M 213.782601 294.200707 
L 215.688096 294.166012 
L 220.642385 294.142907 
L 325.063539 294.18572 
L 325.063539 294.18572 
" clip-path="url(#pb0d747c3e7)" style="fill: none; stroke: #f7cce3; stroke-width: 20; stroke-linecap: square"/>
   </g>
   <g id="line2d_44">
    <path d="M 325.825738 509.365077 
L 520.186282 509.365077 
L 520.186282 509.365077 
" clip-path="url(#pb0d747c3e7)" style="fill: none; stroke: #dfeed1; stroke-width: 20; stroke-linecap: square"/>
   </g>
   <g id="line2d_45">
    <path d="M 522.091777 509.365077 
L 663.479545 509.365077 
L 663.479545 509.365077 
" clip-path="url(#pb0d747c3e7)" style="fill: none; stroke: #ccdcfc; stroke-width: 20; stroke-linecap: square"/>
   </g>
   <g id="patch_8">
    <path d="M 77.654 520.128825 
L 77.654 283.326357 
" style="fill: none; stroke: #000000; stroke-width: 0.8; stroke-linejoin: miter; stroke-linecap: square"/>
   </g>
   <g id="patch_9">
    <path d="M 691.376 520.128825 
L 691.376 283.326357 
" style="fill: none; stroke: #000000; stroke-width: 0.8; stroke-linejoin: miter; stroke-linecap: square"/>
   </g>
   <g id="patch_10">
    <path d="M 77.654 520.128825 
L 691.376 520.128825 
" style="fill: none; stroke: #000000; stroke-width: 0.8; stroke-linejoin: miter; stroke-linecap: square"/>
   </g>
   <g id="patch_11">
    <path d="M 77.654 283.326357 
L 691.376 283.326357 
" style="fill: none; stroke: #000000; stroke-width: 0.8; stroke-linejoin: miter; stroke-linecap: square"/>
   </g>
  </g>
  <g id="axes_3">
   <g id="patch_12">
    <path d="M 77.654 788.555294 
L 691.376 788.555294 
L 691.376 551.752825 
L 77.654 551.752825 
z
" style="fill: #ffffff"/>
   </g>
   <g id="matplotlib.axis_5">
    <g id="xtick_17">
     <g id="line2d_46">
      <g>
       <use xlink:href="#me8a2b40d2a" x="104.407157" y="788.555294" style="stroke: #000000; stroke-width: 0.8"/>
      </g>
     </g>
     <g id="text_36">
      <!-- 0 -->
      <g transform="translate(100.589657 804.673419) scale(0.12 -0.12)">
       <use xlink:href="#DejaVuSans-30"/>
      </g>
     </g>
    </g>
    <g id="xtick_18">
     <g id="line2d_47">
      <g>
       <use xlink:href="#me8a2b40d2a" x="180.626978" y="788.555294" style="stroke: #000000; stroke-width: 0.8"/>
      </g>
     </g>
     <g id="text_37">
      <!-- 200 -->
      <g transform="translate(169.174478 804.673419) scale(0.12 -0.12)">
       <use xlink:href="#DejaVuSans-32"/>
       <use xlink:href="#DejaVuSans-30" x="63.623047"/>
       <use xlink:href="#DejaVuSans-30" x="127.246094"/>
      </g>
     </g>
    </g>
    <g id="xtick_19">
     <g id="line2d_48">
      <g>
       <use xlink:href="#me8a2b40d2a" x="256.8468" y="788.555294" style="stroke: #000000; stroke-width: 0.8"/>
      </g>
     </g>
     <g id="text_38">
      <!-- 400 -->
      <g transform="translate(245.3943 804.673419) scale(0.12 -0.12)">
       <use xlink:href="#DejaVuSans-34"/>
       <use xlink:href="#DejaVuSans-30" x="63.623047"/>
       <use xlink:href="#DejaVuSans-30" x="127.246094"/>
      </g>
     </g>
    </g>
    <g id="xtick_20">
     <g id="line2d_49">
      <g>
       <use xlink:href="#me8a2b40d2a" x="333.066621" y="788.555294" style="stroke: #000000; stroke-width: 0.8"/>
      </g>
     </g>
     <g id="text_39">
      <!-- 600 -->
      <g transform="translate(321.614121 804.673419) scale(0.12 -0.12)">
       <use xlink:href="#DejaVuSans-36"/>
       <use xlink:href="#DejaVuSans-30" x="63.623047"/>
       <use xlink:href="#DejaVuSans-30" x="127.246094"/>
      </g>
     </g>
    </g>
    <g id="xtick_21">
     <g id="line2d_50">
      <g>
       <use xlink:href="#me8a2b40d2a" x="409.286442" y="788.555294" style="stroke: #000000; stroke-width: 0.8"/>
      </g>
     </g>
     <g id="text_40">
      <!-- 800 -->
      <g transform="translate(397.833942 804.673419) scale(0.12 -0.12)">
       <use xlink:href="#DejaVuSans-38"/>
       <use xlink:href="#DejaVuSans-30" x="63.623047"/>
       <use xlink:href="#DejaVuSans-30" x="127.246094"/>
      </g>
     </g>
    </g>
    <g id="xtick_22">
     <g id="line2d_51">
      <g>
       <use xlink:href="#me8a2b40d2a" x="485.506263" y="788.555294" style="stroke: #000000; stroke-width: 0.8"/>
      </g>
     </g>
     <g id="text_41">
      <!-- 1000 -->
      <g transform="translate(470.236263 804.673419) scale(0.12 -0.12)">
       <use xlink:href="#DejaVuSans-31"/>
       <use xlink:href="#DejaVuSans-30" x="63.623047"/>
       <use xlink:href="#DejaVuSans-30" x="127.246094"/>
       <use xlink:href="#DejaVuSans-30" x="190.869141"/>
      </g>
     </g>
    </g>
    <g id="xtick_23">
     <g id="line2d_52">
      <g>
       <use xlink:href="#me8a2b40d2a" x="561.726084" y="788.555294" style="stroke: #000000; stroke-width: 0.8"/>
      </g>
     </g>
     <g id="text_42">
      <!-- 1200 -->
      <g transform="translate(546.456084 804.673419) scale(0.12 -0.12)">
       <use xlink:href="#DejaVuSans-31"/>
       <use xlink:href="#DejaVuSans-32" x="63.623047"/>
       <use xlink:href="#DejaVuSans-30" x="127.246094"/>
       <use xlink:href="#DejaVuSans-30" x="190.869141"/>
      </g>
     </g>
    </g>
    <g id="xtick_24">
     <g id="line2d_53">
      <g>
       <use xlink:href="#me8a2b40d2a" x="637.945905" y="788.555294" style="stroke: #000000; stroke-width: 0.8"/>
      </g>
     </g>
     <g id="text_43">
      <!-- 1400 -->
      <g transform="translate(622.675905 804.673419) scale(0.12 -0.12)">
       <use xlink:href="#DejaVuSans-31"/>
       <use xlink:href="#DejaVuSans-34" x="63.623047"/>
       <use xlink:href="#DejaVuSans-30" x="127.246094"/>
       <use xlink:href="#DejaVuSans-30" x="190.869141"/>
      </g>
     </g>
    </g>
    <g id="text_44">
     <!-- nodes -->
     <g transform="translate(366.414688 820.287169) scale(0.12 -0.12)">
      <defs>
       <path id="DejaVuSans-6e" d="M 3513 2113 
L 3513 0 
L 2938 0 
L 2938 2094 
Q 2938 2591 2744 2837 
Q 2550 3084 2163 3084 
Q 1697 3084 1428 2787 
Q 1159 2491 1159 1978 
L 1159 0 
L 581 0 
L 581 3500 
L 1159 3500 
L 1159 2956 
Q 1366 3272 1645 3428 
Q 1925 3584 2291 3584 
Q 2894 3584 3203 3211 
Q 3513 2838 3513 2113 
z
" transform="scale(0.015625)"/>
       <path id="DejaVuSans-64" d="M 2906 2969 
L 2906 4863 
L 3481 4863 
L 3481 0 
L 2906 0 
L 2906 525 
Q 2725 213 2448 61 
Q 2172 -91 1784 -91 
Q 1150 -91 751 415 
Q 353 922 353 1747 
Q 353 2572 751 3078 
Q 1150 3584 1784 3584 
Q 2172 3584 2448 3432 
Q 2725 3281 2906 2969 
z
M 947 1747 
Q 947 1113 1208 752 
Q 1469 391 1925 391 
Q 2381 391 2643 752 
Q 2906 1113 2906 1747 
Q 2906 2381 2643 2742 
Q 2381 3103 1925 3103 
Q 1469 3103 1208 2742 
Q 947 2381 947 1747 
z
" transform="scale(0.015625)"/>
       <path id="DejaVuSans-73" d="M 2834 3397 
L 2834 2853 
Q 2591 2978 2328 3040 
Q 2066 3103 1784 3103 
Q 1356 3103 1142 2972 
Q 928 2841 928 2578 
Q 928 2378 1081 2264 
Q 1234 2150 1697 2047 
L 1894 2003 
Q 2506 1872 2764 1633 
Q 3022 1394 3022 966 
Q 3022 478 2636 193 
Q 2250 -91 1575 -91 
Q 1294 -91 989 -36 
Q 684 19 347 128 
L 347 722 
Q 666 556 975 473 
Q 1284 391 1588 391 
Q 1994 391 2212 530 
Q 2431 669 2431 922 
Q 2431 1156 2273 1281 
Q 2116 1406 1581 1522 
L 1381 1569 
Q 847 1681 609 1914 
Q 372 2147 372 2553 
Q 372 3047 722 3315 
Q 1072 3584 1716 3584 
Q 2034 3584 2315 3537 
Q 2597 3491 2834 3397 
z
" transform="scale(0.015625)"/>
      </defs>
      <use xlink:href="#DejaVuSans-6e"/>
      <use xlink:href="#DejaVuSans-6f" x="63.378906"/>
      <use xlink:href="#DejaVuSans-64" x="124.560547"/>
      <use xlink:href="#DejaVuSans-65" x="188.037109"/>
      <use xlink:href="#DejaVuSans-73" x="249.560547"/>
     </g>
    </g>
   </g>
   <g id="matplotlib.axis_6">
    <g id="ytick_18">
     <g id="line2d_54">
      <g>
       <use xlink:href="#m1ab4274101" x="77.654" y="777.791546" style="stroke: #000000; stroke-width: 0.8"/>
      </g>
     </g>
     <g id="text_45">
      <!-- 0 -->
      <g transform="translate(63.019 782.350608) scale(0.12 -0.12)">
       <use xlink:href="#DejaVuSans-30"/>
      </g>
     </g>
    </g>
    <g id="ytick_19">
     <g id="line2d_55">
      <g>
       <use xlink:href="#m1ab4274101" x="77.654" y="750.770302" style="stroke: #000000; stroke-width: 0.8"/>
      </g>
     </g>
     <g id="text_46">
      <!-- 1000 -->
      <g transform="translate(40.114 755.329365) scale(0.12 -0.12)">
       <use xlink:href="#DejaVuSans-31"/>
       <use xlink:href="#DejaVuSans-30" x="63.623047"/>
       <use xlink:href="#DejaVuSans-30" x="127.246094"/>
       <use xlink:href="#DejaVuSans-30" x="190.869141"/>
      </g>
     </g>
    </g>
    <g id="ytick_20">
     <g id="line2d_56">
      <g>
       <use xlink:href="#m1ab4274101" x="77.654" y="723.749059" style="stroke: #000000; stroke-width: 0.8"/>
      </g>
     </g>
     <g id="text_47">
      <!-- 2000 -->
      <g transform="translate(40.114 728.308121) scale(0.12 -0.12)">
       <use xlink:href="#DejaVuSans-32"/>
       <use xlink:href="#DejaVuSans-30" x="63.623047"/>
       <use xlink:href="#DejaVuSans-30" x="127.246094"/>
       <use xlink:href="#DejaVuSans-30" x="190.869141"/>
      </g>
     </g>
    </g>
    <g id="ytick_21">
     <g id="line2d_57">
      <g>
       <use xlink:href="#m1ab4274101" x="77.654" y="696.727816" style="stroke: #000000; stroke-width: 0.8"/>
      </g>
     </g>
     <g id="text_48">
      <!-- 3000 -->
      <g transform="translate(40.114 701.286878) scale(0.12 -0.12)">
       <use xlink:href="#DejaVuSans-33"/>
       <use xlink:href="#DejaVuSans-30" x="63.623047"/>
       <use xlink:href="#DejaVuSans-30" x="127.246094"/>
       <use xlink:href="#DejaVuSans-30" x="190.869141"/>
      </g>
     </g>
    </g>
    <g id="ytick_22">
     <g id="line2d_58">
      <g>
       <use xlink:href="#m1ab4274101" x="77.654" y="669.706572" style="stroke: #000000; stroke-width: 0.8"/>
      </g>
     </g>
     <g id="text_49">
      <!-- 4000 -->
      <g transform="translate(40.114 674.265635) scale(0.12 -0.12)">
       <use xlink:href="#DejaVuSans-34"/>
       <use xlink:href="#DejaVuSans-30" x="63.623047"/>
       <use xlink:href="#DejaVuSans-30" x="127.246094"/>
       <use xlink:href="#DejaVuSans-30" x="190.869141"/>
      </g>
     </g>
    </g>
    <g id="ytick_23">
     <g id="line2d_59">
      <g>
       <use xlink:href="#m1ab4274101" x="77.654" y="642.685329" style="stroke: #000000; stroke-width: 0.8"/>
      </g>
     </g>
     <g id="text_50">
      <!-- 5000 -->
      <g transform="translate(40.114 647.244391) scale(0.12 -0.12)">
       <use xlink:href="#DejaVuSans-35"/>
       <use xlink:href="#DejaVuSans-30" x="63.623047"/>
       <use xlink:href="#DejaVuSans-30" x="127.246094"/>
       <use xlink:href="#DejaVuSans-30" x="190.869141"/>
      </g>
     </g>
    </g>
    <g id="ytick_24">
     <g id="line2d_60">
      <g>
       <use xlink:href="#m1ab4274101" x="77.654" y="615.664086" style="stroke: #000000; stroke-width: 0.8"/>
      </g>
     </g>
     <g id="text_51">
      <!-- 6000 -->
      <g transform="translate(40.114 620.223148) scale(0.12 -0.12)">
       <use xlink:href="#DejaVuSans-36"/>
       <use xlink:href="#DejaVuSans-30" x="63.623047"/>
       <use xlink:href="#DejaVuSans-30" x="127.246094"/>
       <use xlink:href="#DejaVuSans-30" x="190.869141"/>
      </g>
     </g>
    </g>
    <g id="ytick_25">
     <g id="line2d_61">
      <g>
       <use xlink:href="#m1ab4274101" x="77.654" y="588.642842" style="stroke: #000000; stroke-width: 0.8"/>
      </g>
     </g>
     <g id="text_52">
      <!-- 7000 -->
      <g transform="translate(40.114 593.201905) scale(0.12 -0.12)">
       <use xlink:href="#DejaVuSans-37"/>
       <use xlink:href="#DejaVuSans-30" x="63.623047"/>
       <use xlink:href="#DejaVuSans-30" x="127.246094"/>
       <use xlink:href="#DejaVuSans-30" x="190.869141"/>
      </g>
     </g>
    </g>
    <g id="ytick_26">
     <g id="line2d_62">
      <g>
       <use xlink:href="#m1ab4274101" x="77.654" y="561.621599" style="stroke: #000000; stroke-width: 0.8"/>
      </g>
     </g>
     <g id="text_53">
      <!-- 8000 -->
      <g transform="translate(40.114 566.180662) scale(0.12 -0.12)">
       <use xlink:href="#DejaVuSans-38"/>
       <use xlink:href="#DejaVuSans-30" x="63.623047"/>
       <use xlink:href="#DejaVuSans-30" x="127.246094"/>
       <use xlink:href="#DejaVuSans-30" x="190.869141"/>
      </g>
     </g>
    </g>
    <g id="text_54">
     <!-- voltage (V) -->
     <g transform="translate(33.618375 703.26656) rotate(-90) scale(0.12 -0.12)">
      <use xlink:href="#DejaVuSans-76"/>
      <use xlink:href="#DejaVuSans-6f" x="59.179688"/>
      <use xlink:href="#DejaVuSans-6c" x="120.361328"/>
      <use xlink:href="#DejaVuSans-74" x="148.144531"/>
      <use xlink:href="#DejaVuSans-61" x="187.353516"/>
      <use xlink:href="#DejaVuSans-67" x="248.632812"/>
      <use xlink:href="#DejaVuSans-65" x="312.109375"/>
      <use xlink:href="#DejaVuSans-20" x="373.632812"/>
      <use xlink:href="#DejaVuSans-28" x="405.419922"/>
      <use xlink:href="#DejaVuSans-56" x="444.433594"/>
      <use xlink:href="#DejaVuSans-29" x="512.841797"/>
     </g>
    </g>
   </g>
   <g id="line2d_63">
    <path d="M 105.550455 562.533219 
L 105.931554 562.524206 
L 107.45595 562.526013 
L 107.837049 562.519293 
L 108.218148 562.528867 
L 109.361446 562.535969 
L 109.742545 562.538017 
L 110.123644 562.531942 
L 111.64804 562.526426 
L 112.029139 562.520744 
L 112.410238 562.528088 
L 113.934635 562.536031 
L 114.315734 562.528999 
L 114.696833 562.538132 
L 116.983428 562.53863 
L 118.126725 562.535005 
L 118.507824 562.533501 
L 119.270022 562.525958 
L 120.032221 562.526426 
L 121.175518 562.528088 
L 121.556617 562.520744 
L 122.699914 562.531554 
L 123.081013 562.535798 
L 123.843212 562.53845 
L 124.224311 562.53811 
L 124.60541 562.536063 
L 124.986509 562.52896 
L 125.748707 562.533464 
L 126.129806 562.534059 
L 126.510905 562.522285 
L 127.654203 562.531647 
L 128.7975 562.530028 
L 129.559698 562.538276 
L 130.321896 562.520244 
L 131.465194 562.535969 
L 131.846293 562.538017 
L 132.227392 562.528867 
L 133.370689 562.531647 
L 134.895086 562.530028 
L 135.276185 562.535798 
L 135.657284 562.53845 
L 137.18168 562.520959 
L 137.562779 562.523 
L 137.943879 562.517289 
L 138.706077 562.531554 
L 139.087176 562.536031 
L 140.230473 562.523 
L 141.37377 562.520959 
L 141.75487 562.517289 
L 142.135969 562.538577 
L 143.279266 562.531942 
L 143.660365 562.524215 
L 144.803662 562.526013 
L 145.184762 562.519293 
L 145.565861 562.524206 
L 146.328059 562.53863 
L 147.090257 562.538577 
L 148.614654 562.538276 
L 148.995753 562.529143 
L 149.376852 562.53598 
L 150.520149 562.533219 
L 151.663446 562.533464 
L 152.044545 562.534059 
L 152.806744 562.516574 
L 153.568942 562.525958 
L 153.950041 562.535005 
L 154.33114 562.533501 
" clip-path="url(#p3a295598c0)" style="fill: none; stroke: #e0e4e7; stroke-width: 20; stroke-linecap: square"/>
   </g>
   <g id="line2d_64">
    <path d="M 157.379933 562.542951 
L 158.52323 562.66738 
L 158.904329 562.577955 
L 160.047627 562.676573 
L 160.428726 562.671523 
L 160.809825 562.582898 
L 161.572023 562.614747 
L 162.71532 562.628003 
L 163.09642 562.560193 
L 164.239717 562.685452 
L 164.620816 562.581293 
L 165.383014 562.677264 
L 166.145212 562.574147 
L 167.28851 562.666189 
L 167.669609 562.655979 
L 168.050708 562.671632 
L 168.431807 562.566161 
L 169.956203 562.655335 
L 170.337303 562.57018 
L 172.242798 562.542951 
L 172.623897 562.566161 
L 173.004996 562.582898 
L 175.291591 562.67146 
L 176.053789 562.574147 
L 176.434888 562.655979 
L 176.815987 562.666189 
L 179.102582 562.644258 
L 179.483681 562.66738 
L 179.86478 562.671632 
L 180.626978 562.671523 
L 182.151375 562.671053 
L 182.913573 562.66124 
L 184.437969 562.575861 
L 184.819069 562.581293 
L 185.200168 562.685452 
L 185.581267 562.577955 
L 186.724564 562.676573 
L 187.105663 562.560193 
L 187.486762 562.628003 
L 187.867861 562.614747 
L 188.248961 562.677264 
" clip-path="url(#p3a295598c0)" style="fill: none; stroke: #fee1cc; stroke-width: 20; stroke-linecap: square"/>
   </g>
   <g id="line2d_65">
    <path d="M 189.773357 562.696803 
L 190.535555 562.587978 
L 192.82215 562.698433 
L 193.203249 562.713212 
L 193.584348 562.707645 
L 195.108744 562.701952 
L 195.489844 562.587667 
L 195.870943 562.695498 
L 197.395339 562.588965 
L 197.776438 562.713303 
L 199.300835 562.710181 
L 199.681934 562.709966 
L 200.063033 562.589684 
L 200.444132 562.697266 
L 200.825231 562.702868 
L 201.20633 562.588965 
L 201.968528 562.588784 
L 202.730727 562.698433 
L 204.636222 562.698987 
L 205.39842 562.589684 
L 206.160618 562.588784 
L 207.303916 562.587978 
L 208.066114 562.587862 
L 209.209411 562.698987 
L 209.97161 562.588129 
L 210.352709 562.697266 
L 211.496006 562.696803 
L 212.258204 562.587862 
" clip-path="url(#p3a295598c0)" style="fill: none; stroke: #ecdcd5; stroke-width: 20; stroke-linecap: square"/>
   </g>
   <g id="line2d_66">
    <path d="M 213.782601 562.626899 
L 215.306997 562.698522 
L 215.688096 562.592317 
L 222.928979 562.698424 
L 223.310078 562.591592 
L 227.883268 562.710838 
L 228.264367 562.595823 
L 228.645466 562.700484 
L 231.313159 562.591488 
L 231.694259 562.743053 
L 234.361952 562.729679 
L 234.743051 562.615171 
L 241.221736 562.698245 
L 241.983934 562.625461 
L 243.508331 562.72635 
L 243.88943 562.611212 
L 244.651628 562.711628 
L 246.557124 562.630776 
L 246.938223 562.59758 
L 247.700421 562.712621 
L 249.987016 562.735727 
L 250.368115 562.622484 
L 253.798007 562.701105 
L 254.179106 562.596994 
L 254.560205 562.712027 
L 256.084601 562.612992 
L 256.4657 562.728131 
L 259.133394 562.721211 
L 261.03889 562.719201 
L 261.419989 562.623514 
L 263.325484 562.737601 
L 263.706583 562.624513 
L 265.23098 562.594695 
L 265.993178 562.709693 
L 267.898674 562.623088 
L 268.279773 562.736222 
L 271.328566 562.72131 
L 271.709665 562.743895 
L 272.090764 562.630919 
L 273.61516 562.713993 
L 274.758458 562.598931 
L 276.663953 562.702107 
L 278.188349 562.591668 
L 279.331647 562.712112 
L 279.712746 562.611946 
L 280.856043 562.613037 
L 281.237142 562.728177 
L 283.142638 562.627183 
L 284.285935 562.722838 
L 284.667034 562.62378 
L 286.57253 562.707675 
L 287.334728 562.624053 
L 288.096926 562.707284 
L 289.240224 562.709693 
L 290.002422 562.594695 
L 290.383521 562.699906 
L 290.76462 562.626899 
L 291.907917 562.721579 
L 292.289016 562.630919 
L 293.051215 562.744496 
L 293.813413 562.625461 
L 294.95671 562.707675 
L 295.337809 562.591668 
L 296.862206 562.737601 
L 302.959791 562.631263 
L 303.72199 562.712621 
L 304.103089 562.59758 
L 305.627485 562.624513 
L 306.770782 562.708637 
L 312.487269 562.729679 
L 312.868368 562.615171 
L 313.630566 562.698522 
L 315.917161 562.627183 
L 316.679359 562.720202 
L 317.441557 562.626538 
L 317.822656 562.743898 
L 318.203756 562.591706 
L 318.584855 562.698504 
L 321.252548 562.710838 
L 322.776945 562.595823 
L 323.539143 562.72697 
L 325.063539 562.611946 
L 325.063539 562.611946 
" clip-path="url(#p3a295598c0)" style="fill: none; stroke: #f7cce3; stroke-width: 20; stroke-linecap: square"/>
   </g>
   <g id="line2d_67">
    <path d="M 325.825738 777.791546 
L 520.186282 777.791546 
L 520.186282 777.791546 
" clip-path="url(#p3a295598c0)" style="fill: none; stroke: #dfeed1; stroke-width: 20; stroke-linecap: square"/>
   </g>
   <g id="line2d_68">
    <path d="M 522.091777 562.804893 
L 523.235075 562.789403 
L 523.997273 562.644341 
L 524.378372 562.758818 
L 525.14057 562.646263 
L 525.521669 562.758483 
L 526.283867 562.588592 
L 526.664966 562.717287 
L 532.381453 562.738151 
L 533.52475 562.58933 
L 533.905849 562.734261 
L 535.049147 562.756374 
L 535.811345 562.609377 
L 536.954642 562.794181 
L 540.003435 562.628331 
L 541.527832 562.73373 
L 541.908931 562.589145 
L 542.671129 562.738195 
L 543.433327 562.642738 
L 544.195525 562.794916 
L 548.387615 562.779506 
L 549.912012 562.784785 
L 551.055309 562.713549 
L 558.296192 562.7953 
L 558.677291 562.830848 
L 565.537075 562.606223 
L 566.299273 562.745389 
L 567.82367 562.588618 
L 570.110265 562.82168 
L 572.01576 562.608801 
L 572.777958 562.834465 
L 574.683454 562.743428 
L 576.588949 562.832094 
L 576.970048 562.743269 
L 578.113346 562.745981 
L 579.256643 562.60272 
L 579.637742 562.76689 
L 580.781039 562.806121 
L 583.067634 562.60737 
L 583.448733 562.750392 
L 583.829832 562.752948 
L 584.97313 562.657215 
L 585.735328 562.734816 
L 587.259724 562.735745 
L 587.640823 562.589323 
L 588.021923 562.73242 
L 590.308517 562.739983 
L 592.595112 562.793116 
L 593.35731 562.643924 
L 593.738409 562.738151 
L 598.311598 562.789403 
L 599.454896 562.646263 
L 600.979292 562.803406 
L 603.646986 562.743428 
L 604.790283 562.783032 
L 605.552481 562.655885 
L 606.695779 562.805741 
L 607.457977 562.642738 
L 607.839076 562.806121 
L 608.601274 562.59206 
L 609.744572 562.750392 
L 610.50677 562.654063 
L 612.031166 562.788583 
L 613.555563 562.651458 
L 614.317761 562.738195 
L 615.079959 562.608801 
L 615.842157 562.740802 
L 617.747653 562.710422 
L 618.128752 562.588148 
L 618.89095 562.591181 
L 620.796446 562.829519 
L 621.558644 562.792785 
L 622.701941 562.609661 
L 623.464139 562.794532 
L 624.607437 562.834465 
L 624.988536 562.643841 
L 626.131833 562.642929 
L 626.894031 562.756374 
L 628.799527 562.79414 
L 629.180626 562.591181 
L 631.086121 562.794532 
L 632.991617 562.657215 
L 634.134914 562.794916 
L 636.421509 562.59206 
L 637.183707 562.658684 
L 637.564806 562.829519 
L 639.470302 562.790885 
L 640.994698 562.587769 
L 641.375797 562.716451 
L 647.473383 562.790292 
L 648.61668 562.60737 
L 649.759978 562.82168 
L 650.522176 562.734816 
L 661.955149 562.745981 
L 662.336248 562.609377 
L 663.479545 562.584857 
L 663.479545 562.584857 
" clip-path="url(#p3a295598c0)" style="fill: none; stroke: #ccdcfc; stroke-width: 20; stroke-linecap: square"/>
   </g>
   <g id="patch_13">
    <path d="M 77.654 788.555294 
L 77.654 551.752825 
" style="fill: none; stroke: #000000; stroke-width: 0.8; stroke-linejoin: miter; stroke-linecap: square"/>
   </g>
   <g id="patch_14">
    <path d="M 691.376 788.555294 
L 691.376 551.752825 
" style="fill: none; stroke: #000000; stroke-width: 0.8; stroke-linejoin: miter; stroke-linecap: square"/>
   </g>
   <g id="patch_15">
    <path d="M 77.654 788.555294 
L 691.376 788.555294 
" style="fill: none; stroke: #000000; stroke-width: 0.8; stroke-linejoin: miter; stroke-linecap: square"/>
   </g>
   <g id="patch_16">
    <path d="M 77.654 551.752825 
L 691.376 551.752825 
" style="fill: none; stroke: #000000; stroke-width: 0.8; stroke-linejoin: miter; stroke-linecap: square"/>
   </g>
  </g>
  <g id="axes_4">
   <g id="matplotlib.axis_7">
    <g id="text_55">
     <!-- time 2019-07-23 09:27:00+00:00 -->
     <g transform="translate(704.494125 234.806122) rotate(-90) scale(0.12 -0.12)">
      <defs>
       <path id="DejaVuSans-69" d="M 603 3500 
L 1178 3500 
L 1178 0 
L 603 0 
L 603 3500 
z
M 603 4863 
L 1178 4863 
L 1178 4134 
L 603 4134 
L 603 4863 
z
" transform="scale(0.015625)"/>
       <path id="DejaVuSans-6d" d="M 3328 2828 
Q 3544 3216 3844 3400 
Q 4144 3584 4550 3584 
Q 5097 3584 5394 3201 
Q 5691 2819 5691 2113 
L 5691 0 
L 5113 0 
L 5113 2094 
Q 5113 2597 4934 2840 
Q 4756 3084 4391 3084 
Q 3944 3084 3684 2787 
Q 3425 2491 3425 1978 
L 3425 0 
L 2847 0 
L 2847 2094 
Q 2847 2600 2669 2842 
Q 2491 3084 2119 3084 
Q 1678 3084 1418 2786 
Q 1159 2488 1159 1978 
L 1159 0 
L 581 0 
L 581 3500 
L 1159 3500 
L 1159 2956 
Q 1356 3278 1631 3431 
Q 1906 3584 2284 3584 
Q 2666 3584 2933 3390 
Q 3200 3197 3328 2828 
z
" transform="scale(0.015625)"/>
       <path id="DejaVuSans-2d" d="M 313 2009 
L 1997 2009 
L 1997 1497 
L 313 1497 
L 313 2009 
z
" transform="scale(0.015625)"/>
       <path id="DejaVuSans-3a" d="M 750 794 
L 1409 794 
L 1409 0 
L 750 0 
L 750 794 
z
M 750 3309 
L 1409 3309 
L 1409 2516 
L 750 2516 
L 750 3309 
z
" transform="scale(0.015625)"/>
       <path id="DejaVuSans-2b" d="M 2944 4013 
L 2944 2272 
L 4684 2272 
L 4684 1741 
L 2944 1741 
L 2944 0 
L 2419 0 
L 2419 1741 
L 678 1741 
L 678 2272 
L 2419 2272 
L 2419 4013 
L 2944 4013 
z
" transform="scale(0.015625)"/>
      </defs>
      <use xlink:href="#DejaVuSans-74"/>
      <use xlink:href="#DejaVuSans-69" x="39.208984"/>
      <use xlink:href="#DejaVuSans-6d" x="66.992188"/>
      <use xlink:href="#DejaVuSans-65" x="164.404297"/>
      <use xlink:href="#DejaVuSans-20" x="225.927734"/>
      <use xlink:href="#DejaVuSans-32" x="257.714844"/>
      <use xlink:href="#DejaVuSans-30" x="321.337891"/>
      <use xlink:href="#DejaVuSans-31" x="384.960938"/>
      <use xlink:href="#DejaVuSans-39" x="448.583984"/>
      <use xlink:href="#DejaVuSans-2d" x="512.207031"/>
      <use xlink:href="#DejaVuSans-30" x="548.291016"/>
      <use xlink:href="#DejaVuSans-37" x="611.914062"/>
      <use xlink:href="#DejaVuSans-2d" x="675.537109"/>
      <use xlink:href="#DejaVuSans-32" x="711.621094"/>
      <use xlink:href="#DejaVuSans-33" x="775.244141"/>
      <use xlink:href="#DejaVuSans-20" x="838.867188"/>
      <use xlink:href="#DejaVuSans-30" x="870.654297"/>
      <use xlink:href="#DejaVuSans-39" x="934.277344"/>
      <use xlink:href="#DejaVuSans-3a" x="997.900391"/>
      <use xlink:href="#DejaVuSans-32" x="1031.591797"/>
      <use xlink:href="#DejaVuSans-37" x="1095.214844"/>
      <use xlink:href="#DejaVuSans-3a" x="1158.837891"/>
      <use xlink:href="#DejaVuSans-30" x="1192.529297"/>
      <use xlink:href="#DejaVuSans-30" x="1256.152344"/>
      <use xlink:href="#DejaVuSans-2b" x="1319.775391"/>
      <use xlink:href="#DejaVuSans-30" x="1403.564453"/>
      <use xlink:href="#DejaVuSans-30" x="1467.1875"/>
      <use xlink:href="#DejaVuSans-3a" x="1530.810547"/>
      <use xlink:href="#DejaVuSans-30" x="1564.501953"/>
      <use xlink:href="#DejaVuSans-30" x="1628.125"/>
     </g>
    </g>
   </g>
   <g id="patch_17">
    <path d="M 77.654 251.702357 
L 77.654 14.899888 
" style="fill: none; stroke: #000000; stroke-width: 0.8; stroke-linejoin: miter; stroke-linecap: square"/>
   </g>
   <g id="patch_18">
    <path d="M 691.376 251.702357 
L 691.376 14.899888 
" style="fill: none; stroke: #000000; stroke-width: 0.8; stroke-linejoin: miter; stroke-linecap: square"/>
   </g>
   <g id="patch_19">
    <path d="M 77.654 251.702357 
L 691.376 251.702357 
" style="fill: none; stroke: #000000; stroke-width: 0.8; stroke-linejoin: miter; stroke-linecap: square"/>
   </g>
   <g id="patch_20">
    <path d="M 77.654 14.899888 
L 691.376 14.899888 
" style="fill: none; stroke: #000000; stroke-width: 0.8; stroke-linejoin: miter; stroke-linecap: square"/>
   </g>
  </g>
  <g id="axes_5">
   <g id="matplotlib.axis_8">
    <g id="text_56">
     <!-- time 2019-07-23 09:29:00+00:00 -->
     <g transform="translate(704.494125 503.232591) rotate(-90) scale(0.12 -0.12)">
      <use xlink:href="#DejaVuSans-74"/>
      <use xlink:href="#DejaVuSans-69" x="39.208984"/>
      <use xlink:href="#DejaVuSans-6d" x="66.992188"/>
      <use xlink:href="#DejaVuSans-65" x="164.404297"/>
      <use xlink:href="#DejaVuSans-20" x="225.927734"/>
      <use xlink:href="#DejaVuSans-32" x="257.714844"/>
      <use xlink:href="#DejaVuSans-30" x="321.337891"/>
      <use xlink:href="#DejaVuSans-31" x="384.960938"/>
      <use xlink:href="#DejaVuSans-39" x="448.583984"/>
      <use xlink:href="#DejaVuSans-2d" x="512.207031"/>
      <use xlink:href="#DejaVuSans-30" x="548.291016"/>
      <use xlink:href="#DejaVuSans-37" x="611.914062"/>
      <use xlink:href="#DejaVuSans-2d" x="675.537109"/>
      <use xlink:href="#DejaVuSans-32" x="711.621094"/>
      <use xlink:href="#DejaVuSans-33" x="775.244141"/>
      <use xlink:href="#DejaVuSans-20" x="838.867188"/>
      <use xlink:href="#DejaVuSans-30" x="870.654297"/>
      <use xlink:href="#DejaVuSans-39" x="934.277344"/>
      <use xlink:href="#DejaVuSans-3a" x="997.900391"/>
      <use xlink:href="#DejaVuSans-32" x="1031.591797"/>
      <use xlink:href="#DejaVuSans-39" x="1095.214844"/>
      <use xlink:href="#DejaVuSans-3a" x="1158.837891"/>
      <use xlink:href="#DejaVuSans-30" x="1192.529297"/>
      <use xlink:href="#DejaVuSans-30" x="1256.152344"/>
      <use xlink:href="#DejaVuSans-2b" x="1319.775391"/>
      <use xlink:href="#DejaVuSans-30" x="1403.564453"/>
      <use xlink:href="#DejaVuSans-30" x="1467.1875"/>
      <use xlink:href="#DejaVuSans-3a" x="1530.810547"/>
      <use xlink:href="#DejaVuSans-30" x="1564.501953"/>
      <use xlink:href="#DejaVuSans-30" x="1628.125"/>
     </g>
    </g>
   </g>
   <g id="patch_21">
    <path d="M 77.654 520.128825 
L 77.654 283.326357 
" style="fill: none; stroke: #000000; stroke-width: 0.8; stroke-linejoin: miter; stroke-linecap: square"/>
   </g>
   <g id="patch_22">
    <path d="M 691.376 520.128825 
L 691.376 283.326357 
" style="fill: none; stroke: #000000; stroke-width: 0.8; stroke-linejoin: miter; stroke-linecap: square"/>
   </g>
   <g id="patch_23">
    <path d="M 77.654 520.128825 
L 691.376 520.128825 
" style="fill: none; stroke: #000000; stroke-width: 0.8; stroke-linejoin: miter; stroke-linecap: square"/>
   </g>
   <g id="patch_24">
    <path d="M 77.654 283.326357 
L 691.376 283.326357 
" style="fill: none; stroke: #000000; stroke-width: 0.8; stroke-linejoin: miter; stroke-linecap: square"/>
   </g>
  </g>
  <g id="axes_6">
   <g id="matplotlib.axis_9">
    <g id="text_57">
     <!-- time 2019-07-23 09:33:00+00:00 -->
     <g transform="translate(704.494125 771.65906) rotate(-90) scale(0.12 -0.12)">
      <use xlink:href="#DejaVuSans-74"/>
      <use xlink:href="#DejaVuSans-69" x="39.208984"/>
      <use xlink:href="#DejaVuSans-6d" x="66.992188"/>
      <use xlink:href="#DejaVuSans-65" x="164.404297"/>
      <use xlink:href="#DejaVuSans-20" x="225.927734"/>
      <use xlink:href="#DejaVuSans-32" x="257.714844"/>
      <use xlink:href="#DejaVuSans-30" x="321.337891"/>
      <use xlink:href="#DejaVuSans-31" x="384.960938"/>
      <use xlink:href="#DejaVuSans-39" x="448.583984"/>
      <use xlink:href="#DejaVuSans-2d" x="512.207031"/>
      <use xlink:href="#DejaVuSans-30" x="548.291016"/>
      <use xlink:href="#DejaVuSans-37" x="611.914062"/>
      <use xlink:href="#DejaVuSans-2d" x="675.537109"/>
      <use xlink:href="#DejaVuSans-32" x="711.621094"/>
      <use xlink:href="#DejaVuSans-33" x="775.244141"/>
      <use xlink:href="#DejaVuSans-20" x="838.867188"/>
      <use xlink:href="#DejaVuSans-30" x="870.654297"/>
      <use xlink:href="#DejaVuSans-39" x="934.277344"/>
      <use xlink:href="#DejaVuSans-3a" x="997.900391"/>
      <use xlink:href="#DejaVuSans-33" x="1031.591797"/>
      <use xlink:href="#DejaVuSans-33" x="1095.214844"/>
      <use xlink:href="#DejaVuSans-3a" x="1158.837891"/>
      <use xlink:href="#DejaVuSans-30" x="1192.529297"/>
      <use xlink:href="#DejaVuSans-30" x="1256.152344"/>
      <use xlink:href="#DejaVuSans-2b" x="1319.775391"/>
      <use xlink:href="#DejaVuSans-30" x="1403.564453"/>
      <use xlink:href="#DejaVuSans-30" x="1467.1875"/>
      <use xlink:href="#DejaVuSans-3a" x="1530.810547"/>
      <use xlink:href="#DejaVuSans-30" x="1564.501953"/>
      <use xlink:href="#DejaVuSans-30" x="1628.125"/>
     </g>
    </g>
   </g>
   <g id="patch_25">
    <path d="M 77.654 788.555294 
L 77.654 551.752825 
" style="fill: none; stroke: #000000; stroke-width: 0.8; stroke-linejoin: miter; stroke-linecap: square"/>
   </g>
   <g id="patch_26">
    <path d="M 691.376 788.555294 
L 691.376 551.752825 
" style="fill: none; stroke: #000000; stroke-width: 0.8; stroke-linejoin: miter; stroke-linecap: square"/>
   </g>
   <g id="patch_27">
    <path d="M 77.654 788.555294 
L 691.376 788.555294 
" style="fill: none; stroke: #000000; stroke-width: 0.8; stroke-linejoin: miter; stroke-linecap: square"/>
   </g>
   <g id="patch_28">
    <path d="M 77.654 551.752825 
L 691.376 551.752825 
" style="fill: none; stroke: #000000; stroke-width: 0.8; stroke-linejoin: miter; stroke-linecap: square"/>
   </g>
   <g id="legend_1">
    <g id="patch_29">
     <path d="M 100.146875 865.436158 
L 668.883125 865.436158 
Q 671.283125 865.436158 671.283125 863.036158 
L 671.283125 846.288658 
Q 671.283125 843.888658 668.883125 843.888658 
L 100.146875 843.888658 
Q 97.746875 843.888658 97.746875 846.288658 
L 97.746875 863.036158 
Q 97.746875 865.436158 100.146875 865.436158 
z
" style="fill: #ffffff; opacity: 0.8; stroke: #cccccc; stroke-linejoin: miter"/>
    </g>
    <g id="line2d_69">
     <path d="M 102.546875 853.606783 
L 114.546875 853.606783 
L 126.546875 853.606783 
" style="fill: none; stroke: #ffffff; stroke-linecap: square"/>
     <defs>
      <path id="m23f48b6de1" d="M -10 10 
L 10 10 
L 10 -10 
L -10 -10 
z
" style="stroke: #ffffff; stroke-linejoin: miter"/>
     </defs>
     <g>
      <use xlink:href="#m23f48b6de1" x="114.546875" y="853.606783" style="fill: #e0e4e7; stroke: #ffffff; stroke-linejoin: miter"/>
     </g>
    </g>
    <g id="text_58">
     <!-- area_1 -->
     <g transform="translate(136.146875 857.806783) scale(0.12 -0.12)">
      <defs>
       <path id="DejaVuSans-72" d="M 2631 2963 
Q 2534 3019 2420 3045 
Q 2306 3072 2169 3072 
Q 1681 3072 1420 2755 
Q 1159 2438 1159 1844 
L 1159 0 
L 581 0 
L 581 3500 
L 1159 3500 
L 1159 2956 
Q 1341 3275 1631 3429 
Q 1922 3584 2338 3584 
Q 2397 3584 2469 3576 
Q 2541 3569 2628 3553 
L 2631 2963 
z
" transform="scale(0.015625)"/>
       <path id="DejaVuSans-5f" d="M 3263 -1063 
L 3263 -1509 
L -63 -1509 
L -63 -1063 
L 3263 -1063 
z
" transform="scale(0.015625)"/>
      </defs>
      <use xlink:href="#DejaVuSans-61"/>
      <use xlink:href="#DejaVuSans-72" x="61.279297"/>
      <use xlink:href="#DejaVuSans-65" x="100.142578"/>
      <use xlink:href="#DejaVuSans-61" x="161.666016"/>
      <use xlink:href="#DejaVuSans-5f" x="222.945312"/>
      <use xlink:href="#DejaVuSans-31" x="272.945312"/>
     </g>
    </g>
    <g id="line2d_70">
     <path d="M 200.53625 853.606783 
L 212.53625 853.606783 
L 224.53625 853.606783 
" style="fill: none; stroke: #ffffff; stroke-linecap: square"/>
     <defs>
      <path id="m0adf82d4c1" d="M -10 10 
L 10 10 
L 10 -10 
L -10 -10 
z
" style="stroke: #ffffff; stroke-linejoin: miter"/>
     </defs>
     <g>
      <use xlink:href="#m0adf82d4c1" x="212.53625" y="853.606783" style="fill: #fee1cc; stroke: #ffffff; stroke-linejoin: miter"/>
     </g>
    </g>
    <g id="text_59">
     <!-- area_2 -->
     <g transform="translate(234.13625 857.806783) scale(0.12 -0.12)">
      <use xlink:href="#DejaVuSans-61"/>
      <use xlink:href="#DejaVuSans-72" x="61.279297"/>
      <use xlink:href="#DejaVuSans-65" x="100.142578"/>
      <use xlink:href="#DejaVuSans-61" x="161.666016"/>
      <use xlink:href="#DejaVuSans-5f" x="222.945312"/>
      <use xlink:href="#DejaVuSans-32" x="272.945312"/>
     </g>
    </g>
    <g id="line2d_71">
     <path d="M 298.525625 853.606783 
L 310.525625 853.606783 
L 322.525625 853.606783 
" style="fill: none; stroke: #ffffff; stroke-linecap: square"/>
     <defs>
      <path id="m60c0f594cb" d="M -10 10 
L 10 10 
L 10 -10 
L -10 -10 
z
" style="stroke: #ffffff; stroke-linejoin: miter"/>
     </defs>
     <g>
      <use xlink:href="#m60c0f594cb" x="310.525625" y="853.606783" style="fill: #ecdcd5; stroke: #ffffff; stroke-linejoin: miter"/>
     </g>
    </g>
    <g id="text_60">
     <!-- area_3 -->
     <g transform="translate(332.125625 857.806783) scale(0.12 -0.12)">
      <use xlink:href="#DejaVuSans-61"/>
      <use xlink:href="#DejaVuSans-72" x="61.279297"/>
      <use xlink:href="#DejaVuSans-65" x="100.142578"/>
      <use xlink:href="#DejaVuSans-61" x="161.666016"/>
      <use xlink:href="#DejaVuSans-5f" x="222.945312"/>
      <use xlink:href="#DejaVuSans-33" x="272.945312"/>
     </g>
    </g>
    <g id="line2d_72">
     <path d="M 396.515 853.606783 
L 408.515 853.606783 
L 420.515 853.606783 
" style="fill: none; stroke: #ffffff; stroke-linecap: square"/>
     <defs>
      <path id="m949cb54012" d="M -10 10 
L 10 10 
L 10 -10 
L -10 -10 
z
" style="stroke: #ffffff; stroke-linejoin: miter"/>
     </defs>
     <g>
      <use xlink:href="#m949cb54012" x="408.515" y="853.606783" style="fill: #f7cce3; stroke: #ffffff; stroke-linejoin: miter"/>
     </g>
    </g>
    <g id="text_61">
     <!-- area_4 -->
     <g transform="translate(430.115 857.806783) scale(0.12 -0.12)">
      <use xlink:href="#DejaVuSans-61"/>
      <use xlink:href="#DejaVuSans-72" x="61.279297"/>
      <use xlink:href="#DejaVuSans-65" x="100.142578"/>
      <use xlink:href="#DejaVuSans-61" x="161.666016"/>
      <use xlink:href="#DejaVuSans-5f" x="222.945312"/>
      <use xlink:href="#DejaVuSans-34" x="272.945312"/>
     </g>
    </g>
    <g id="line2d_73">
     <path d="M 494.504375 853.606783 
L 506.504375 853.606783 
L 518.504375 853.606783 
" style="fill: none; stroke: #ffffff; stroke-linecap: square"/>
     <defs>
      <path id="ma3b088b6ba" d="M -10 10 
L 10 10 
L 10 -10 
L -10 -10 
z
" style="stroke: #ffffff; stroke-linejoin: miter"/>
     </defs>
     <g>
      <use xlink:href="#ma3b088b6ba" x="506.504375" y="853.606783" style="fill: #dfeed1; stroke: #ffffff; stroke-linejoin: miter"/>
     </g>
    </g>
    <g id="text_62">
     <!-- area_5 -->
     <g transform="translate(528.104375 857.806783) scale(0.12 -0.12)">
      <use xlink:href="#DejaVuSans-61"/>
      <use xlink:href="#DejaVuSans-72" x="61.279297"/>
      <use xlink:href="#DejaVuSans-65" x="100.142578"/>
      <use xlink:href="#DejaVuSans-61" x="161.666016"/>
      <use xlink:href="#DejaVuSans-5f" x="222.945312"/>
      <use xlink:href="#DejaVuSans-35" x="272.945312"/>
     </g>
    </g>
    <g id="line2d_74">
     <path d="M 592.49375 853.606783 
L 604.49375 853.606783 
L 616.49375 853.606783 
" style="fill: none; stroke: #ffffff; stroke-linecap: square"/>
     <defs>
      <path id="mb9c72be73c" d="M -10 10 
L 10 10 
L 10 -10 
L -10 -10 
z
" style="stroke: #ffffff; stroke-linejoin: miter"/>
     </defs>
     <g>
      <use xlink:href="#mb9c72be73c" x="604.49375" y="853.606783" style="fill: #ccdcfc; stroke: #ffffff; stroke-linejoin: miter"/>
     </g>
    </g>
    <g id="text_63">
     <!-- area_6 -->
     <g transform="translate(626.09375 857.806783) scale(0.12 -0.12)">
      <use xlink:href="#DejaVuSans-61"/>
      <use xlink:href="#DejaVuSans-72" x="61.279297"/>
      <use xlink:href="#DejaVuSans-65" x="100.142578"/>
      <use xlink:href="#DejaVuSans-61" x="161.666016"/>
      <use xlink:href="#DejaVuSans-5f" x="222.945312"/>
      <use xlink:href="#DejaVuSans-36" x="272.945312"/>
     </g>
    </g>
   </g>
  </g>
 </g>
 <defs>
  <clipPath id="p41323a146f">
   <rect x="77.654" y="14.899888" width="613.722" height="236.802469"/>
  </clipPath>
  <clipPath id="pb0d747c3e7">
   <rect x="77.654" y="283.326357" width="613.722" height="236.802469"/>
  </clipPath>
  <clipPath id="p3a295598c0">
   <rect x="77.654" y="551.752825" width="613.722" height="236.802469"/>
  </clipPath>
 </defs>
</svg>
